<?xml version="1.0" standalone="no"?>
<!DOCTYPE svg PUBLIC "-//W3C//DTD SVG 1.1//EN" "http://www.w3.org/Graphics/SVG/1.1/DTD/svg11.dtd" >
<svg xmlns="http://www.w3.org/2000/svg">
<metadata>Generated by IcoMoon</metadata>
<defs>
<font id="c-icon" horiz-adv-x="1024">
<font-face units-per-em="1024" ascent="960" descent="-64" />
<missing-glyph horiz-adv-x="1024" />
<glyph unicode="&#x20;" horiz-adv-x="512" d="" />
<glyph unicode="&#xe900;" glyph-name="upload" d="M1010.904 93.53h13.074v-74.968h-13.074v74.968zM1010.904 217.311h13.074v-74.967h-13.074v74.967zM1010.904 341.092h13.074v-74.968h-13.074v74.968zM1010.904 464.871h13.074v-74.966h-13.074v74.966zM1010.904 588.651h13.074v-74.965h-13.074v74.965zM1010.904 712.439h13.074v-74.965h-13.074v74.965zM1010.904 836.22h13.074v-74.965h-13.074v74.965zM1010.904 960h13.074v-74.965h-13.074v74.965zM907.751 960h74.966v-13.079h-74.966v13.079zM783.971 960h74.966v-13.079h-74.966v13.079zM660.19 960h74.965v-13.079h-74.965v13.079zM536.408 960h74.966v-13.079h-74.966v13.079zM412.627 960h74.967v-13.079h-74.967v13.079zM288.841 960h74.973v-13.079h-74.973v13.079zM165.060 960h74.967v-13.079h-74.967v13.079zM41.279 960h74.967v-13.079h-74.967v13.079zM0.020-30.251v-33.708h33.705v13.074h-20.626v20.634h-13.079zM0.020 93.53h13.079v-74.968h-13.079v74.968zM0.020 217.311h13.079v-74.967h-13.079v74.967zM0.020 341.092h13.079v-74.968h-13.079v74.968zM0.020 464.871h13.079v-74.966h-13.079v74.966zM0.020 588.651h13.079v-74.965h-13.079v74.965zM0.020 712.439h13.079v-74.965h-13.079v74.965zM0.020 836.22h13.079v-74.965h-13.079v74.965zM0.020 960h13.079v-74.965h-13.079v74.965zM82.541-50.885h74.964v-13.074h-74.964v13.074zM206.322-50.885h74.964v-13.074h-74.964v13.074zM704.298 464.955h-175.359v175.357h-33.873v-175.357h-175.357v-33.875h175.357v-175.359h33.873v175.359h175.359v33.875zM330.102-50.885h74.972v-13.074h-74.972v13.074zM453.89-50.885h74.965v-13.074h-74.965v13.074zM577.67-50.885h74.966v-13.074h-74.966v13.074zM701.451-50.885h74.966v-13.074h-74.966v13.074zM825.231-50.885h74.966v-13.074h-74.966v13.074zM1010.904-30.251v-20.634h-61.893v-13.074h74.966v33.708h-13.074z" />
<glyph unicode="&#xe901;" glyph-name="share" d="M739.555 504.888h199.316c15.598 0 28.238-12.656 28.238-28.255v-455.487c0-15.606-12.865-28.255-28.238-28.255h-853.742c-15.598 0-28.238 12.656-28.238 28.255v455.486c0 15.606 12.867 28.257 28.238 28.257h199.316c15.709 0 28.445 12.735 28.445 28.445s-12.736 28.445-28.445 28.445h-227.565c-31.568 0-56.88-25.357-56.88-56.637v-512.502c0-31.333 25.466-56.638 56.88-56.638h910.239c31.568 0 56.881 25.357 56.881 56.637v512.503c0 31.33-25.467 56.637-56.881 56.637h-227.564c-15.709 0-28.445-12.736-28.445-28.445s12.736-28.445 28.445-28.445zM517.335 959.5c-3.737 0.705-7.577 0.665-11.299-0.118-9.057 1.923-18.818-0.643-25.825-7.649l-204.203-204.204c-11.002-11.002-10.976-28.987 0.133-40.094 11.185-11.186 29.059-11.168 40.095-0.133l167.321 167.321v-739.564c0-15.666 12.735-28.392 28.445-28.392 15.818 0 28.445 12.711 28.445 28.392v738.135l165.891-165.892c11.002-11.002 28.987-10.977 40.095 0.133 11.185 11.185 11.168 29.059 0.133 40.094l-204.208 204.203c-6.773 6.773-16.194 9.367-25.025 7.767l0.001 0.001z" />
<glyph unicode="&#xe902;" glyph-name="heart" horiz-adv-x="1138" d="M568.872-64c-13.498 0-26.491 4.387-37.575 12.683-12.914 9.67-317.713 239.054-438.496 422.62-41.348 62.876-92.802 141.111-92.802 252.119 0 185.588 142.287 336.572 317.181 336.572 96.037 0 185.853-45.526 246.428-124.905l5.276-6.911 5.283 6.911c60.621 79.38 150.444 124.912 246.428 124.912 174.894 0 317.181-150.99 317.181-336.572 0-111.021-51.473-189.256-92.828-252.119-121.17-184.202-425.595-412.963-438.496-422.614-11.064-8.309-24.057-12.696-37.581-12.696zM316.172 903.111c-142.97 0-259.283-124.061-259.283-276.552 0-85.114 35.644-146.597 82.244-218.122 115.456-177.062 422.624-410.171 425.714-412.503l4.026-3.046 4.026 3.046c3.090 2.332 310.291 235.441 425.721 412.503 46.613 71.511 82.27 132.975 82.27 218.122 0 152.491-116.313 276.552-259.283 276.552-100.889 0-192.759-62.803-235.195-160.387h-0.567l-1.667-4.663c-2.187-7.426-8.341-12.418-15.305-12.418-6.944 0-13.085 4.992-15.285 12.424l-1.377 4.65h-0.857c-42.443 97.603-134.247 160.393-235.182 160.393z" />
<glyph unicode="&#xe903;" glyph-name="like" d="M913.51 594.809h-216.004c15.708 36.526 33.772 130.97 23.163 216.596-8.243 68.526-48.302 121.148-106.824 140.985-43.397 14.735-89.344 7.66-114.084-17.673-29.46-30.044-43.213-86.588-57.928-146.483-9.626-39.281-19.447-79.729-31.817-100.741-35.533-60.476-110.356-92.877-125.082-92.877h-102.308c-20.233 0-36.526-16.497-36.526-36.721v-511.416c0-20.133 16.321-36.456 36.456-36.456h98.836c30.638 0 144.333-73.052 276.101-73.052h246.436c40.653 0 110.561 15.708 136.673 59.105 26.317 43.992 82.084 443.802 82.084 487.977 0 61.46-59.699 110.756-109.179 110.756l0.001-0.001zM36.527 594.614h-0.072c-20.133 0-36.456-16.321-36.456-36.453v-511.501c0-20.133 16.321-36.453 36.456-36.453h0.144c20.133 0 36.456 16.321 36.456 36.453v511.499c0 20.133-16.321 36.456-36.456 36.456l-0.073-0.001z" />
<glyph unicode="&#xe904;" glyph-name="comment-circle" d="M962.221 522.152c1.81 241.052-213.626 436.907-479.752 436.907s-481.563-195.855-481.563-435.023c0-146.891 81.467-278.716 206.384-359.695v-135.592c0-18.832 12.673-28.248 27.156-28.248 5.431 0 10.862 1.883 14.483 3.766l132.158 90.394c32.587-7.533 66.984-9.416 101.382-9.416 264.316 1.883 479.752 195.855 479.752 436.907zM267.032 450.589c-32.587 0-57.932 26.365-57.932 60.263s25.345 60.263 57.932 60.263c32.587 0 57.932-26.365 57.932-60.263s-27.156-60.263-57.932-60.263zM486.089 450.589c-32.587 0-57.932 26.365-57.932 60.263s25.345 60.263 57.932 60.263c32.587 0 57.932-26.365 57.932-60.263-1.81-33.898-27.156-60.263-57.932-60.263zM697.904 450.589c-32.587 0-57.932 26.365-57.932 60.263s25.345 60.263 57.932 60.263c32.587 0 57.932-26.365 57.932-60.263-1.81-33.898-27.156-60.263-57.932-60.263zM971.272 416.691l-3.621 3.766c-7.242-30.131-18.104-58.38-32.587-84.745 0-1.883 1.81-1.883 1.81-3.766 9.052-22.599 14.483-45.197 14.483-69.679 0-65.913-36.208-128.059-97.761-165.723l-9.052-7.533c-5.431-3.766-9.052-9.416-9.052-16.949v-39.548l-36.208 24.482-7.242 5.65c-5.431 3.766-9.052 3.766-14.483 3.766l-7.242-1.883c-16.293-3.766-32.587-5.65-50.691-5.65-39.829 0-77.847 9.416-110.434 24.482-32.587-7.533-66.984-13.183-101.382-15.066 54.312-48.964 130.348-79.095 213.626-79.095 21.725 0 43.449 1.883 63.364 5.65l83.278-56.497c1.81-1.883 5.431-1.883 9.052-1.883 9.052 0 16.293 7.533 16.293 18.832v84.745c77.847 50.847 130.348 133.709 130.348 225.986-1.81 54.613-19.914 107.343-52.501 150.657z" />
<glyph unicode="&#xe905;" glyph-name="star" horiz-adv-x="1081" d="M208.512-49.335c13.105-8.988 28.475-13.554 43.863-13.554 12.687 0 25.357 3.071 36.836 9.229l239.238 128.84 239.285-128.84c11.513-6.158 24.199-9.229 36.836-9.229 15.372 0 30.744 4.567 43.896 13.554 23.764 16.417 35.92 44.555 31.161 72.629l-46.629 278.519 201.163 200.872c19.922 19.811 26.74 48.881 17.67 75.282-9.101 26.353-32.512 45.6-60.697 49.812l-274.418 40.825-119.304 247.63c-12.509 26.016-39.394 42.658-68.963 42.658-29.472 0-56.372-16.642-68.93-42.658l-119.274-247.63-274.433-40.825c-28.202-4.212-51.613-23.459-60.698-49.812-9.068-26.401-2.202-55.471 17.703-75.282l201.082-200.872-46.644-278.519c-4.697-28.074 7.442-56.212 31.256-72.629zM65.298 553.977l321.674 47.803 141.494 293.375 141.494-293.375 321.674-47.803-233-232.42 7.799-46.645 46.612-278.003-284.629 153.101-284.627-153.15 46.612 278.051 7.799 46.645-232.903 232.421z" />
<glyph unicode="&#xe906;" glyph-name="recommend" d="M312.256 558.912c21.274 40.582 53.301 73.041 92.324 94.261l1.18 0.587-93.44-94.848zM493.632 679.488l31.104 0.384c-3.809 0.227-8.262 0.357-12.746 0.357-6.462 0-12.86-0.269-19.186-0.796l0.828 0.056zM577.792 670.336c49.473-15.606 90.41-46.389 118.424-86.808l0.488-0.744-118.912 87.552zM658.688 272.512l-1.92-1.28-149.952 194.688-144-198.72c-4.556-9.781-14.303-16.44-25.605-16.44-7.518 0-14.348 2.946-19.399 7.747l0.012-0.011c-26.88 25.664-47.936 55.68-62.72 89.216-14.638 32.326-23.169 70.092-23.169 109.85 0 0.194 0 0.387 0.001 0.581v-0.030c0 74.176 29.056 143.872 81.92 196.352 50.432 50.228 119.994 81.282 196.81 81.282 0.334 0 0.668-0.001 1.002-0.002h-0.052c74.688 0 144.96-28.864 197.76-81.28 50.584-49.859 81.921-119.128 81.921-195.716 0-0.224 0-0.447-0.001-0.671v0.035c0-38.336-7.808-75.456-23.168-110.4-15.585-34.806-36.722-64.427-62.609-89.111l-0.111-0.105c-5.023-4.849-11.87-7.836-19.415-7.836-13.302 0-24.434 9.286-27.269 21.729l-0.036 0.188zM923.904 624.32c23.36-54.784 35.2-112.96 35.2-172.928 0-70.976-16.448-138.816-48.896-201.6-32.345-61.44-76.216-112.675-129.151-152.513l-1.153-0.831c-4.62-3.502-10.464-5.609-16.801-5.609-9.114 0-17.21 4.359-22.316 11.107l-0.051 0.070c-3.485 4.577-5.584 10.374-5.584 16.661 0 9.055 4.353 17.093 11.080 22.136l0.072 0.051c99.712 74.368 156.864 187.52 156.864 310.528 0 214.336-175.616 388.672-391.552 388.672s-391.552-174.336-391.552-388.672c0-122.944 57.152-236.16 156.8-310.528 6.799-5.095 11.152-13.133 11.152-22.187 0-6.287-2.098-12.084-5.633-16.728l0.050 0.068c-5.197-6.776-13.296-11.101-22.405-11.101-6.313 0-12.141 2.077-16.837 5.586l0.074-0.053c-54.062 40.674-97.913 91.908-129.058 150.889l-1.182 2.455c-30.81 58.169-48.898 127.161-48.898 200.377 0 0.43 0.001 0.86 0.002 1.29v-0.066c0 59.968 11.776 118.144 35.2 172.928 23.736 54.893 56.074 101.731 95.835 141.083l0.037 0.037c80.892 80.411 192.388 130.113 315.492 130.113 0.325 0 0.649 0 0.974-0.001h-0.050c0.248 0 0.541 0.001 0.834 0.001 183.516 0 341.238-110.438 410.331-268.48l1.123-2.881zM564.352 272.448c-12.736 21.12-31.936 33.152-52.736 33.152s-40.064-12.096-52.8-33.152l-110.208-182.4c-12.864-21.312-14.464-43.712-4.288-61.568 10.24-17.856 30.4-28.096 55.424-28.096h223.744c24.96 0 45.184 10.24 55.36 28.096 10.24 17.856 8.64 40.32-4.224 61.568l-110.272 182.4zM623.488 55.936h-223.744c-0.123-0.002-0.268-0.003-0.413-0.003-1.847 0-3.65 0.188-5.391 0.545l0.172-0.030c0.696 1.938 1.516 3.607 2.496 5.165l-0.064-0.109 110.272 182.4c1.26 2.261 2.864 4.171 4.766 5.733l0.034 0.027c1.936-1.589 3.54-3.499 4.749-5.66l0.051-0.1 110.272-182.4c1.28-2.112 1.92-3.84 2.432-5.056-1.569-0.328-3.372-0.515-5.219-0.515-0.145 0-0.29 0.001-0.435 0.003h0.022z" />
<glyph unicode="&#xe907;" glyph-name="comment-square-o" horiz-adv-x="1084" d="M359.296 63.512c140.925 149.632 133.308 145.728 162.508 145.728h454.515c24.122 0 43.166 19.517 43.166 42.938v594.623c0 23.421-19.044 42.938-43.166 42.938h-867.134c-24.122 0-43.166-19.517-43.166-42.938v-593.321c0-23.421 19.044-42.938 43.166-42.938h185.361c27.931-1.301 48.245-15.614 64.749-147.029zM321.208-64c0 0-22.853 204.28-40.627 204.28h-200.596c-44.436 0-79.985 36.432-79.985 81.972v655.776c0 45.54 35.549 81.972 79.985 81.972h924.266c44.436 0 79.985-36.432 79.985-81.972v-655.776c0-45.54-35.549-81.972-79.985-81.972h-469.751c-19.044 0-213.292-204.28-213.292-204.28z" />
<glyph unicode="&#xe908;" glyph-name="check-circle-o" d="M512-64c-282.77 0-512 229.23-512 512s229.23 512 512 512c282.77 0 512-229.23 512-512s-229.23-512-512-512zM512-14.049c255.182 0 462.049 206.866 462.049 462.049s-206.866 462.049-462.049 462.049c-255.182 0-462.049-206.866-462.049-462.049s206.866-462.049 462.049-462.049zM174.829 440.852l53.559 53.484 183.136-182.88 380.584 380.057 53.559-53.484-434.142-433.54z" />
<glyph unicode="&#xe909;" glyph-name="search" horiz-adv-x="977" d="M65.488 517.958c0 207.975 168.579 376.554 376.554 376.554s376.554-168.58 376.554-376.554c0-207.974-168.579-376.554-376.554-376.554s-376.554 168.58-376.554 376.554zM719.789 174.068l199.772-199.717 57.893 57.91-198.973 199.030c65.839 77.174 105.601 177.277 105.601 286.667 0 244.14-197.902 442.042-442.042 442.042s-442.041-197.902-442.041-442.042c0-244.138 197.902-442.051 442.042-442.051 105.217 0.001 201.851 36.775 277.747 98.161z" />
<glyph unicode="&#xe90a;" glyph-name="circle-o" d="M510.757 0.001c-60.5 0-119.201 11.854-174.474 35.232-53.377 22.577-101.309 54.893-142.466 96.050-41.156 41.154-73.471 89.087-96.049 142.465-23.378 55.272-35.231 113.973-35.231 174.473s11.853 119.201 35.231 174.474c22.576 53.377 54.892 101.309 96.049 142.466s89.089 73.472 142.466 96.049c55.272 23.378 113.973 35.231 174.474 35.231 60.499 0 119.201-11.853 174.473-35.231 53.377-22.577 101.309-54.893 142.466-96.050 41.157-41.155 73.472-89.088 96.049-142.466 23.378-55.27 35.232-113.972 35.232-174.474s-11.854-119.204-35.233-174.473c-22.577-53.379-54.892-101.31-96.048-142.465-41.156-41.157-89.089-73.473-142.465-96.050-55.274-23.377-113.975-35.231-174.474-35.231zM510.757 865.74c-56.369 0-111.047-11.037-162.514-32.806-49.717-21.029-94.369-51.136-132.717-89.482-38.347-38.347-68.453-82.999-89.482-132.717-21.769-51.467-32.806-106.146-32.806-162.514s11.037-111.047 32.806-162.513c21.030-49.719 51.136-94.372 89.482-132.717 38.347-38.348 82.999-68.454 132.717-89.482 51.468-21.77 106.146-32.808 162.514-32.808s111.046 11.037 162.514 32.808c49.717 21.029 94.369 51.135 132.716 89.482 38.347 38.345 68.453 82.996 89.481 132.716 21.77 51.465 32.808 106.143 32.808 162.514s-11.037 111.048-32.808 162.514c-21.029 49.718-51.135 94.371-89.481 132.718s-82.999 68.453-132.717 89.482c-51.466 21.768-106.144 32.805-162.513 32.805z" />
<glyph unicode="&#xe90b;" glyph-name="alipay" horiz-adv-x="1025" d="M933.875 280.231v415.398c0 89.578-72.64 162.247-162.247 162.247h-519.257c-89.578 0-162.247-72.64-162.247-162.247v-519.257c0-89.578 72.64-162.247 162.247-162.247h519.257c79.833 0 146.234 57.694 159.739 133.674-43.010 18.503-229.54 99.030-326.659 145.483-73.909-89.539-151.342-143.264-268.058-143.264s-194.602 71.798-185.212 159.831c6.163 57.78 45.78 152.112 217.775 135.887 90.651-8.552 132.162-25.462 206.163-49.822 19.016 35.045 34.979 73.643 46.962 114.726h-327.761v32.452h162.143v58.413h-197.819v35.697h197.819v84.151c0 0 1.864 13.205 16.339 13.205h81.13v-97.356h210.937v-35.697h-210.938v-58.413h171.995c-15.769-64.437-39.718-123.547-69.793-175.278 50.030-18.048 277.485-87.583 277.485-87.583s0 0 0 0zM323.779 205.593c-123.318 0-142.788 77.885-136.298 110.337s42.188 74.64 110.743 74.64c78.833 0 149.316-20.114 234.033-61.377-59.424-77.44-132.575-123.6-208.477-123.6z" />
<glyph unicode="&#xe90c;" glyph-name="wepay" d="M390.22 328.908c-61.265-34.020-70.351 19.099-70.351 19.099l-76.782 178.467c-29.544 84.805 25.569 38.237 25.569 38.237s47.29-35.634 83.18-57.348c35.871-21.714 76.758-6.374 76.758-6.374l501.965 230.778c-92.611 114.781-245.595 189.834-418.792 189.834-282.655 0-511.766-199.732-511.766-446.129 0-141.725 75.866-267.866 194.035-349.622l-21.311-122.019c0 0-10.388-35.622 25.615-19.1 24.534 11.265 87.078 51.634 124.31 76.202 58.531-20.316 122.298-31.597 189.144-31.597 282.632 0 511.79 199.732 511.79 446.134 0 71.369-19.31 138.769-53.516 198.595-159.927-95.844-531.91-318.582-579.849-345.157v0 0z" />
<glyph unicode="&#xe90d;" glyph-name="check-circle" horiz-adv-x="1067" d="M512.718 960c283.197 0 512.712-229.202 512.712-512.002 0-282.802-229.482-511.998-512.712-511.998-283.196 0-512.718 229.196-512.718 511.998 0 282.8 229.522 512.002 512.718 512.002zM417.169 199.321l420.246 419.664-51.844 51.772-368.402-367.892-177.274 177.027-51.844-51.772 229.119-228.799z" />
<glyph unicode="&#xe90e;" glyph-name="tencent-weibo" horiz-adv-x="731" d="M481.143 624c0-60.571-49.714-110.286-110.286-110.286-23.429 0-45.143 7.429-63.429 20-20.571-22.286-43.429-50.286-65.714-83.429-93.143-140-132.571-305.143-115.429-490.857 1.143-16.571-10.857-30.857-26.857-32.571h-2.857c-14.857 0-28 11.429-29.714 26.857-22.286 250.286 57.143 427.429 127.429 532 25.714 38.286 51.429 69.143 75.429 94.286-6.286 13.714-9.143 28.571-9.143 44 0 61.143 49.143 110.286 110.286 110.286 60.571 0 110.286-49.143 110.286-110.286zM698.857 617.714c0-183.429-149.143-332.571-333.143-332.571-25.143 0-50.286 2.857-74.857 8-16 4-25.714 20-22.286 36 4 15.429 19.429 25.714 35.429 22.286 20-5.143 41.143-7.429 61.714-7.429 150.857 0 273.714 122.857 273.714 273.714s-122.857 273.714-273.714 273.714-273.714-122.857-273.714-273.714c0-44 10.286-85.714 29.714-124.571 7.429-14.857 1.714-32.571-12.571-40-14.857-7.429-32.571-1.714-40 13.143-24 46.286-36.571 98.857-36.571 151.429 0 184 149.714 333.143 333.143 333.143 184 0 333.143-149.143 333.143-333.143z" />
<glyph unicode="&#xe90f;" glyph-name="weibo" horiz-adv-x="1039" d="M385.714 217.143c16 26.286 7.429 56.571-19.429 68-25.714 10.857-60-0.571-76-25.714-16.571-25.714-8.571-56 17.143-68 26.286-12 61.714-0.571 78.286 25.714zM439.429 286.286c5.714 10.286 2.286 21.714-8 25.714-10.286 3.429-22.857-1.143-28.571-10.857-5.714-10.286-2.857-21.143 7.429-25.714 10.286-4 23.429 0.571 29.143 10.857zM538.857 225.143c-34.286-77.714-133.714-120-218.286-92.571-81.714 26.286-116 106.857-80.571 179.429 35.429 70.857 126.286 110.857 206.857 90.286 84-21.714 126.286-100.571 92-177.143zM717.143 316.571c-10.857 111.429-157.143 188-326.857 171.429-169.714-17.143-297.714-120.571-286.857-232s157.143-188 326.857-171.429c169.714 17.143 297.714 120.571 286.857 232zM893.143 314.286c0-128.571-185.143-290.286-463.429-290.286-212.571 0-429.714 102.857-429.714 272.571 0 88.571 56 190.857 152.571 287.429 129.143 129.143 279.429 187.429 336 130.857 25.143-24.571 27.429-68 11.429-119.429-8-26.286 24.571-11.429 24.571-12 104 44 194.857 46.286 228-1.143 17.714-25.143 16-60.571 0-101.714-7.429-18.857 2.286-21.714 16.571-26.286 58.857-18.286 124-62.286 124-140zM850.857 670.857c32.571-36 41.714-85.714 27.429-129.143-5.714-17.714-24.571-27.429-42.286-21.714s-27.429 24.571-21.714 42.286v0c6.857 21.714 2.286 45.714-13.714 63.429s-39.429 24.571-61.143 20v0c-18.286-4-36.571 7.429-40 25.714-4 18.286 7.429 36 25.714 40 44.571 9.714 93.143-4 125.714-40.571zM954.286 764c67.429-74.286 85.143-176 56.571-265.143v0c-6.857-20.571-28.571-32-49.143-25.143s-32 28.571-25.714 49.143v0c20.571 63.429 8 136-40 188.571-48 53.143-118.286 73.143-183.429 59.429-21.143-4.571-42.286 9.143-46.857 30.286s9.143 41.714 30.286 46.286v0c92 19.429 190.857-8.571 258.286-83.429z" />
<glyph unicode="&#xe910;" glyph-name="wechat" horiz-adv-x="1170" d="M331.429 687.428c0 31.429-20.571 52-52 52-30.857 0-62.286-20.571-62.286-52 0-30.857 31.429-51.429 62.286-51.429 31.429 0 52 20.571 52 51.429zM756 397.714c0 20.571-20.571 41.143-52 41.143-20.571 0-41.143-20.571-41.143-41.143 0-21.143 20.571-41.714 41.143-41.714 31.429 0 52 20.571 52 41.714zM621.143 687.428c0 31.429-20.571 52-51.429 52-31.429 0-62.286-20.571-62.286-52 0-30.857 30.857-51.429 62.286-51.429 30.857 0 51.429 20.571 51.429 51.429zM984 397.714c0 20.571-21.143 41.143-52 41.143-20.571 0-41.143-20.571-41.143-41.143 0-21.143 20.571-41.714 41.143-41.714 30.857 0 52 20.571 52 41.714zM832 624.571c-13.143 1.714-26.286 2.286-40 2.286-196.571 0-352-146.857-352-327.429 0-30.286 4.571-59.429 13.143-86.857-13.143-1.143-25.714-1.714-38.857-1.714-52 0-93.143 10.286-145.143 20.571l-144.571-72.571 41.143 124.571c-103.429 72.571-165.714 166.286-165.714 280 0 197.143 186.286 352 414.286 352 203.429 0 382.286-124 417.714-290.857zM1170.286 304c0-93.143-61.714-176-145.143-238.286l31.429-103.429-113.714 62.286c-41.714-10.286-83.429-21.143-124.571-21.143-197.143 0-352 134.857-352 300.571s154.857 300.571 352 300.571c186.286 0 352-134.857 352-300.571z" />
<glyph unicode="&#xe911;" glyph-name="qq" d="M154.286 490.286c-4 9.714-4.571 19.429-4.571 29.714 0 16 10.286 41.714 20 53.714-0.571 14.857 5.714 45.143 17.143 54.857 0 105.714 81.714 238.857 177.143 284.571 58.857 28 120.571 37.714 185.143 37.714 50.286 0 105.143-12 152-31.429 134.286-56.571 164.571-161.714 193.143-296l0.571-2.857c16.571-25.143 31.429-54.857 31.429-85.714 0-15.429-10.286-30.857-10.286-44.571 0-1.143 3.429-5.714 4-6.857 49.143-72.571 93.714-151.429 93.714-241.714 0-20-10.857-89.714-42.857-89.714-22.286 0-46.857 54.286-54.857 69.143-0.571 0.571-1.143 0.571-1.714 0.571l-2.857-2.286c-18.286-47.429-38.286-92-75.429-127.429 32.571-31.429 85.143-28.571 94.857-82.857-2.857-6.286-1.714-13.143-6.286-19.429-32.571-49.143-120-55.429-172.571-55.429-69.714 0-126.286 18.286-192 37.714-13.714 4-34.286 1.714-49.143 3.429-34.857-38.286-120-48.571-169.143-48.571-43.429 0-211.429 2.857-211.429 77.143 0 32 6.857 41.143 29.143 61.714 17.714 3.429 30.857 13.143 51.429 14.286 2.857 0 5.143 0.571 8 1.143 0.571 0.571 1.143 0.571 1.143 2.286l-1.143 1.714c-39.429 9.143-94.857 108.571-103.429 149.714l-2.857 1.714c-4 0-5.714-8.571-6.857-11.429-12.571-29.143-42.286-60.571-75.429-64h-0.571c-4.571 0-2.857 4.571-6.286 5.714-8 18.857-13.143 36-13.143 57.143 0 114.286 54.857 198.857 144 266.286z" />
<glyph unicode="&#xe912;" glyph-name="angle-down" horiz-adv-x="658" d="M614.286 530.286c0-4.571-2.286-9.714-5.714-13.143l-266.286-266.286c-3.429-3.429-8.571-5.714-13.143-5.714s-9.714 2.286-13.143 5.714l-266.286 266.286c-3.429 3.429-5.714 8.571-5.714 13.143s2.286 9.714 5.714 13.143l28.571 28.571c3.429 3.429 8 5.714 13.143 5.714 4.571 0 9.714-2.286 13.143-5.714l224.571-224.571 224.571 224.571c3.429 3.429 8.571 5.714 13.143 5.714s9.714-2.286 13.143-5.714l28.571-28.571c3.429-3.429 5.714-8.571 5.714-13.143z" />
<glyph unicode="&#xe913;" glyph-name="angle-up" horiz-adv-x="658" d="M614.286 274.286c0-4.571-2.286-9.714-5.714-13.143l-28.571-28.571c-3.429-3.429-8-5.714-13.143-5.714-4.571 0-9.714 2.286-13.143 5.714l-224.571 224.571-224.571-224.571c-3.429-3.429-8.571-5.714-13.143-5.714s-9.714 2.286-13.143 5.714l-28.571 28.571c-3.429 3.429-5.714 8.571-5.714 13.143s2.286 9.714 5.714 13.143l266.286 266.286c3.429 3.429 8.571 5.714 13.143 5.714s9.714-2.286 13.143-5.714l266.286-266.286c3.429-3.429 5.714-8.571 5.714-13.143z" />
<glyph unicode="&#xe914;" glyph-name="angle-right" horiz-adv-x="347" d="M340 402.286c0-4.571-2.286-9.714-5.714-13.143l-266.286-266.286c-3.429-3.429-8.571-5.714-13.143-5.714s-9.714 2.286-13.143 5.714l-28.571 28.571c-3.429 3.429-5.714 8-5.714 13.143 0 4.571 2.286 9.714 5.714 13.143l224.571 224.571-224.571 224.571c-3.429 3.429-5.714 8.571-5.714 13.143s2.286 9.714 5.714 13.143l28.571 28.571c3.429 3.429 8.571 5.714 13.143 5.714s9.714-2.286 13.143-5.714l266.286-266.286c3.429-3.429 5.714-8.571 5.714-13.143z" />
<glyph unicode="&#xe915;" glyph-name="angle-left" horiz-adv-x="384" d="M358.286 640c0-4.571-2.286-9.714-5.714-13.143l-224.571-224.571 224.571-224.571c3.429-3.429 5.714-8.571 5.714-13.143s-2.286-9.714-5.714-13.143l-28.571-28.571c-3.429-3.429-8.571-5.714-13.143-5.714s-9.714 2.286-13.143 5.714l-266.286 266.286c-3.429 3.429-5.714 8.571-5.714 13.143s2.286 9.714 5.714 13.143l266.286 266.286c3.429 3.429 8.571 5.714 13.143 5.714s9.714-2.286 13.143-5.714l28.571-28.571c3.429-3.429 5.714-8 5.714-13.143z" />
<glyph unicode="&#xe916;" glyph-name="activity" d="M480.083 868.713c-24.872 15.058-106.202 57.576-154.57 84.527-42.263 23.499-55.084-26.95-59.111-61.508-4.028-34.654-4.028-79.476 40.281-79.476h162.66c44.309 0 44.309 35.871 10.741 56.458v0zM0.001 693.233v-101.566c-0.064-37.596 12.531-56.554 62.723-56.554h370.875v209.144h-371.834c-50.799 0.030-61.765-16.722-61.765-51.024v0zM42.393 59.955c0.48-78.293 46.164-122.954 143.734-122.954h245.043v520.715h-388.777c0 0-0.575-319.5 0-397.761zM1023.017 688.917c0 34.304-14.929 55.371-65.698 55.371h-365.599v-209.143h368.476c50.193 0 62.853 17.36 62.82 54.955-0.159 34.239-0.096 64.547 0.001 98.817zM766.624 892.466c-4.028 34.558-16.847 85.007-59.143 61.508-48.433-26.95-129.699-69.469-154.57-84.623-33.632-20.492-33.632-56.361 10.772-56.361h162.628c44.341 0.001 44.341 44.853 40.313 79.475v0zM591.72 457.716v-520.715h237.563c97.506 0 141.432 49.009 141.976 127.238 0.576 78.293-0.16 393.477-0.16 393.477h-379.378z" />
<glyph unicode="&#xe917;" glyph-name="community2" horiz-adv-x="1229" d="M336.597 220.050c1.715 0.735 3.307 1.715 5.022 2.45 20.456 39.686 45.566 73.003 73.983 98.235-122.488 49.363-208.965 167.931-208.965 307.078 0 16.536 1.592 32.582 3.92 48.505-118.813-16.291-210.434-115.384-210.434-235.544 0-99.95 63.326-185.324 152.988-220.601-57.569-50.22-96.521-146.006-96.521-256h226.848c0 95.786 20.945 183.61 55.732 253.183-0.857 0.857-1.592 1.837-2.572 2.695zM1185.194 440.773c0 120.161-91.621 219.376-210.557 235.544 2.327-15.923 3.92-31.969 3.92-48.505 0-139.024-86.477-257.715-208.965-307.078 28.417-25.233 53.527-58.549 73.983-98.235 1.715-0.735 3.307-1.715 5.022-2.45-0.98-0.857-1.715-1.837-2.695-2.695 34.787-69.573 55.732-157.52 55.732-253.183h226.848c0 109.994-38.951 205.78-96.521 255.878 89.906 35.399 153.233 120.773 153.233 220.723zM718.392 320.367c122.488 49.24 208.965 168.299 208.965 307.322 0 183.242-149.925 331.82-334.76 331.82s-334.76-148.578-334.76-331.82c0-139.146 86.477-258.082 208.965-307.322-78.515-69.941-131.797-203.208-131.797-356.195h515.185c0.122 152.988-53.16 286.255-131.797 356.195zM592.597 443.59c-74.595 0-135.349 51.567-135.349 114.894 0 13.106 10.656 23.64 23.64 23.64s23.64-10.656 23.64-23.64c0-37.236 39.441-67.491 87.946-67.491s87.946 30.255 87.946 67.491c0 13.106 10.656 23.64 23.64 23.64s23.64-10.656 23.64-23.64c0.245-63.326-60.387-114.894-135.104-114.894z" />
<glyph unicode="&#xe918;" glyph-name="info" horiz-adv-x="1075" d="M960.441-63.115h-847.448c-62.404 0-112.993 48.217-112.993 107.696v807.722c0 59.479 50.589 107.696 112.993 107.696h847.448c62.404 0 112.993-48.217 112.993-107.696v-807.722c0-59.479-50.589-107.696-112.993-107.696zM197.738 208.588c0-31.254 18.971-56.589 42.372-56.589h197.738c23.402 0 42.372 25.336 42.372 56.589v264.084c0 31.254-18.971 56.589-42.372 56.589h-197.738c-23.402 0-42.372-25.336-42.372-56.589v-264.084zM833.324 744.654h-593.214c-23.402 0-42.372-18.081-42.372-40.386s18.971-40.386 42.372-40.386h593.214c23.402 0 42.372 18.081 42.372 40.386s-18.971 40.386-42.372 40.386zM833.324 475.367h-197.738c-23.402 0-42.372-18.081-42.372-40.386s18.971-40.386 42.372-40.386h197.738c23.402 0 42.372 18.081 42.372 40.386s-18.971 40.386-42.372 40.386zM833.324 286.898h-197.738c-23.402 0-42.372-18.081-42.372-40.386s18.971-40.386 42.372-40.386h197.738c23.402 0 42.372 18.081 42.372 40.386s-18.971 40.386-42.372 40.386z" />
<glyph unicode="&#xe919;" glyph-name="me" d="M139.095-39.863c-0.021 1.826 0.158 3.693 0.557 5.576 15.772 70.431 50.579 134.809 102.246 187.082 39.359 39.821 86.202 69.908 136.818 89.188-47.411 18.36-90.941 46.862-127.873 84.348-68.885 69.918-107.395 162.959-107.395 262.056s38.51 192.688 107.395 262.606c69.427 70.469 161.093 109.006 258.725 109.006 0.526 0 1.052-0.001 1.578-0.003 0.531 0.002 1.063 0.003 1.594 0.003 97.895 0 189.807-39.067 259.422-108.398 69.614-70.431 107.684-163.422 107.684-262.465s-38.614-192.585-107.684-262.465c-36.992-37.426-80.586-65.891-127.803-84.332 50.672-19.283 97.568-49.453 136.952-89.427 51.528-52.301 86.242-116.714 101.971-187.183 0.125-0.592 0.228-1.182 0.308-1.77 3.154-11.243 3.244-20.891-0.983-27.959-26.879 0-714.209 0-743.976 0-0.847 8.555-0.595 16.592 0.463 24.137zM288.592 465.895c43.69-55.937 128.514-110.986 226.525-110.986 99.521 0 177.926 52.943 220.436 112.636 14.912 20.939 10.025 50.002-10.914 64.914s-50.002 10.025-64.914-10.914c-8.422-11.826-25.037-28.498-45.483-42.304-29.41-19.859-62.476-31.241-99.124-31.241-36.491 0-71.662 12.184-104.26 33.339-22.207 14.411-41.166 31.955-48.9 41.857-15.823 20.259-45.074 23.855-65.333 8.032s-23.855-45.074-8.032-65.333z" />
<glyph unicode="&#xe91a;" d="M205.874 960h612.252c75.142 0 136.056-65.494 136.056-146.286v-804.571c0-56.943-11.903-73.143-68.028-73.143-37.417 0-162.135 88.922-374.154 266.767-215.647-177.844-340.365-266.767-374.154-266.767-50.683 0-68.028 12.22-68.028 73.143v804.571c0 80.791 60.914 146.286 136.056 146.286zM270.322 862.561c-69.082 0-107.413-33.598-107.413-117.833v-632.676c0-45.032 22.58-51.084 51.406-26.36 19.217 16.483 118.446 95.422 297.685 236.817 180.7-145.544 280.051-224.483 298.054-236.817 27.003-18.501 51.037-12.369 51.037 26.36v632.676c0 79.367-25.794 117.833-107.413 117.833h-483.357z" />
<glyph unicode="&#xe91b;" glyph-name="pw" horiz-adv-x="819" d="M424.238 14.032c-182.447 0-330.701 148.279-330.701 330.701 0 182.447 148.254 330.975 330.701 330.975s330.701-148.254 330.701-330.701c0-182.447-148.254-330.975-330.701-330.975v0zM213.661 681.498c0 115.949 94.38 210.577 210.577 210.577s210.577-94.38 210.577-210.577v-29.174c-59.938 41.276-132.499 65.206-210.577 65.206s-150.64-24.204-210.577-65.206v29.174zM676.861 618.927v62.845c0 139.333-113.29 252.623-252.623 252.623s-252.623-113.29-252.623-252.623v-62.845c-73.879-68.088-120.422-165.873-120.422-273.92 0-205.583 167.214-372.772 372.772-372.772 205.583 0 372.772 167.19 372.772 372.772 0.273 108.047-45.997 205.583-119.876 273.92v0zM451.446 360.165c21.097 10.511 35.386 32.702 34.293 58.124-1.342 31.286-26.564 57.030-57.801 58.969-35.933 2.261-65.777-26.241-65.777-61.702 0-24.278 13.99-45.276 34.342-55.39l-58.621-140.874c-2.336-5.591 1.789-11.754 7.828-11.754h156.529c6.039 0 10.164 6.163 7.828 11.754l-58.621 140.874z" />
<glyph unicode="&#xe91c;" glyph-name="mobile" horiz-adv-x="853" d="M741.648 13.37h-588.614c-29.447 0-53.389 23.508-53.389 52.398v138.842h695.392v-138.842c0-28.889-23.967-52.398-53.389-52.398v0zM99.671 246.568v506.221h695.366v-506.221h-695.366zM153.034 889.573h588.614c29.422 0 53.389-23.508 53.389-52.398v-42.404h-695.392v42.404c0 28.889 23.942 52.398 53.389 52.398v0zM741.648 931.556h-588.614c-53.010 0-96.145-42.355-96.145-94.38v-771.407c0-52.026 43.135-94.38 96.145-94.38h588.614c53.010 0 96.12 42.355 96.12 94.38v771.407c0 52.026-43.11 94.38-96.12 94.38v0zM457.203 162.826c-25.785 0-46.747-20.582-46.747-45.901s20.962-45.925 46.747-45.925c25.785 0 46.747 20.607 46.747 45.925s-20.962 45.901-46.747 45.901z" />
<glyph unicode="&#xe91d;" glyph-name="nav" horiz-adv-x="1472" d="M64.903 831.268h1341.889c35.057 0 63.711 28.764 63.711 63.955s-28.348 63.955-63.711 63.955h-1341.889c-35.057 0-63.711-28.764-63.711-63.955s28.654-63.955 63.711-63.955v0zM1406.792 511.802h-1341.889c-35.057 0-63.711-28.764-63.711-63.955s28.654-63.955 63.711-63.955h1341.889c35.057 0 63.711 28.764 63.711 63.955s-28.654 63.955-63.711 63.955v0zM1406.792 64.732h-1341.889c-35.057 0-63.711-28.457-63.711-63.955s28.654-63.955 63.711-63.955h1341.889c35.057 0 63.711 28.457 63.711 63.955s-28.654 63.955-63.711 63.955z" />
<glyph unicode="&#xe91e;" glyph-name="film" d="M0 832v-768h1024v768h-1024zM192 128h-128v128h128v-128zM192 384h-128v128h128v-128zM192 640h-128v128h128v-128zM768 128h-512v640h512v-640zM960 128h-128v128h128v-128zM960 384h-128v128h128v-128zM960 640h-128v128h128v-128zM384 640v-384l256 192z" />
<glyph unicode="&#xe91f;" glyph-name="check-square-o" d="M758.589 597.734c-11.696 11.696-30.753 11.603-42.561-0.206l-253.485-256.376-153.783 153.744c-11.809 11.81-30.867 11.901-42.563 0.205l-1.057-1.057c-11.697-11.697-11.604-30.752 0.205-42.562l175.874-175.832c2.292-2.291 4.86-4.137 7.59-5.546 0.011-0.006 0.021-0.011 0.034-0.017 0.382-0.195 0.765-0.387 1.153-0.566 0.349-0.163 0.703-0.316 1.056-0.463 0.060-0.025 0.118-0.052 0.178-0.077 4.464-1.839 9.291-2.549 14.048-2.135 0.062 0.005 0.123 0.008 0.184 0.014 0.366 0.034 0.734 0.079 1.098 0.126 0.125 0.017 0.249 0.029 0.374 0.047 0.319 0.045 0.638 0.102 0.955 0.157 0.164 0.028 0.327 0.054 0.491 0.085 0.301 0.058 0.601 0.126 0.901 0.192 0.171 0.038 0.343 0.073 0.514 0.115 0.322 0.078 0.644 0.167 0.964 0.256 0.139 0.039 0.277 0.073 0.416 0.114 0.399 0.117 0.793 0.245 1.187 0.378 0.050 0.017 0.102 0.031 0.15 0.050 4.234 1.458 8.218 3.875 11.604 7.262l275.328 278.469c11.808 11.809 11.9 30.867 0.204 42.563l-1.056 1.060zM893.715 6.918h-763.983c-33.688 0-61.096 27.407-61.096 61.096v759.915c0 33.688 27.408 61.096 61.096 61.096h763.983c33.689 0 61.096-27.408 61.096-61.096v-759.915c0-33.689-27.407-61.096-61.096-61.096zM130.034 68.317h763.379v759.312h-763.379v-759.312z" />
<glyph unicode="&#xe920;" glyph-name="check-square" d="M893.715 889.027h-763.983c-33.688 0-61.096-27.408-61.096-61.096v-759.915c0-33.689 27.408-61.096 61.096-61.096h763.983c33.689 0 61.096 27.407 61.096 61.096v759.915c0 33.689-27.407 61.096-61.096 61.096zM759.442 554.112l-275.328-278.47c-3.386-3.387-7.37-5.804-11.604-7.262-0.049-0.019-0.101-0.033-0.15-0.050-0.394-0.133-0.789-0.261-1.187-0.378-0.139-0.041-0.277-0.075-0.416-0.114-0.32-0.089-0.642-0.178-0.964-0.256-0.171-0.042-0.343-0.077-0.514-0.115-0.3-0.065-0.6-0.134-0.901-0.192-0.164-0.031-0.327-0.057-0.491-0.085-0.317-0.055-0.635-0.112-0.955-0.157-0.125-0.018-0.249-0.030-0.374-0.047-0.364-0.047-0.732-0.092-1.098-0.126-0.061-0.006-0.122-0.009-0.184-0.014-4.756-0.414-9.583 0.296-14.048 2.135-0.060 0.025-0.118 0.052-0.178 0.077-0.354 0.147-0.707 0.3-1.056 0.463-0.388 0.179-0.772 0.369-1.153 0.566-0.012 0.006-0.023 0.011-0.034 0.017-2.73 1.409-5.298 3.255-7.59 5.546l-175.875 175.832c-11.809 11.81-11.902 30.865-0.205 42.562l1.057 1.057c11.696 11.696 30.754 11.605 42.563-0.205l153.783-153.744 253.485 256.376c11.808 11.809 30.865 11.902 42.561 0.206l1.057-1.059c11.696-11.696 11.605-30.754-0.204-42.563z" />
<glyph unicode="&#xe921;" glyph-name="square-o" horiz-adv-x="1025" d="M910.373 943.632c53.689 0 97.197-44.070 97.197-97.759v-796.139c0-53.689-43.509-97.306-97.197-97.306h-796.139c-53.689 0-97.867 43.617-97.867 97.306v796.139c0 53.689 44.179 97.759 97.867 97.759h796.159zM910.373 959.999h-796.139c-62.814 0-114.234-51.311-114.234-114.125v-796.139c0-62.813 51.42-113.672 114.234-113.672h796.139c62.813 0 113.564 50.859 113.564 113.672v796.139c0 62.813-50.75 114.125-113.564 114.125v0z" />
<glyph unicode="&#xe922;" glyph-name="comment-square" horiz-adv-x="1161" d="M290.133 601.474c-19.391-0.139-37.931-7.766-51.541-21.202s-21.175-31.581-21.031-50.443c0-39.585 32.495-71.72 72.572-71.72 19.391 0.159 37.923 7.805 51.519 21.255s21.141 31.603 20.976 50.465c0.3 39.249-32.145 71.314-72.495 71.645zM580.267 601.474c-40.35-0.331-72.795-32.396-72.495-71.645 0-39.585 32.495-71.72 72.495-71.72 19.391 0.159 37.923 7.805 51.519 21.255s21.141 31.603 20.976 50.465c0.3 39.249-32.145 71.314-72.495 71.645zM870.4 601.474c-40.35-0.331-72.795-32.396-72.495-71.645 0-39.585 32.495-71.72 72.495-71.72 19.405 0.139 37.956 7.776 51.569 21.229s21.168 31.617 21.003 50.492c0.144 18.862-7.421 37.007-21.031 50.443s-32.15 21.063-51.541 21.202zM145.067 960c-80.077-0.075-145.067-64.27-145.067-143.441v-537.639c0-79.171 66.383-152.17 148.394-152.17h221.043c38.53-39.134 183.364-179.865 183.364-179.865 7.168-7.152 17.065-11.091 27.331-10.877s19.981 4.562 26.827 12.006c0 0 102.901 108.446 178.954 178.736h226.227c82.011 0 148.394 73 148.394 152.17v537.639c0 79.171-64.99 143.365-145.067 143.365l-870.4 0.075zM1012.14 197.869h-222.436c-27.002 0-51.218-26.34-51.218-26.34l-131.372-131.7c-7.068-7.104-16.835-11.058-26.997-10.929s-19.82 4.327-26.697 11.607l-127.349 130.948c0 0-29.71 26.415-55.241 26.415h-222.436c-41.006 0-75.822 41.542-75.822 81.127v537.563c0 39.585 32.495 71.645 72.495 71.645h870.4c40.077 0 72.572-32.060 72.572-71.645v-537.639c0-39.585-34.816-81.127-75.822-81.127l-0.077 0.075z" />
<glyph unicode="&#xe923;" glyph-name="pencil" d="M1003.701 706.644l-237.826 233.414c-26.166 25.758-68.814 25.758-95.046 0l-594.451-583.397c-22.293-56.857-62.338-300.401-75.755-392.286 10.078-9.916 15.624-22.189 28.237-27.752 88.568 13.2 348.018 81.899 380.453 93.386l594.387 583.325c26.232 25.819 26.232 67.63 0 93.309v0 0l0.001 0.002zM100.139 6.679l-23.761 23.329 20.429 119.991 115.47-113.358-112.138-29.962zM361.727 76.73l-74.689-20.116-176.614 173.353 13.55 80.038 475.505 466.698 47.591-46.657-451.745-443.37 47.524-46.65 451.745 443.362 47.524-46.652-356.625-350.058 47.59-46.65 356.632 349.981 47.526-46.657-475.513-466.621zM884.822 590.006l-237.752 233.346 71.283 70.050 237.754-233.414-71.285-69.981z" />
<glyph unicode="&#xe924;" glyph-name="warnning" d="M959.256 448c0 247.013-200.243 447.256-447.256 447.256s-447.256-200.243-447.256-447.256c0-247.013 200.243-447.256 447.256-447.256s447.256 200.243 447.256 447.256v0 0 0 0 0zM117.362 448c0 217.953 176.685 394.638 394.638 394.638s394.638-176.685 394.638-394.638c0-217.953-176.685-394.638-394.638-394.638s-394.638 176.685-394.638 394.638v0 0 0 0 0zM484.458 360.44c0-23.021 10.551-34.531 31.653-34.531s31.653 11.51 31.653 34.531v319.41c0 23.021-10.551 34.531-31.653 34.531s-31.653-11.51-31.653-34.531v-319.41zM478.702 219.439c1.918-23.021 14.388-34.531 37.408-34.531s35.49 11.51 37.408 34.531c-1.918 23.021-14.388 35.49-37.408 37.408-23.021-1.918-35.49-14.388-37.408-37.408v0z" />
<glyph unicode="&#xe925;" d="M372.364 634.182h279.273c25.706 0 46.545-20.839 46.545-46.545v0c0-25.706-20.839-46.545-46.545-46.545h-279.273c-25.706 0-46.545 20.839-46.545 46.545v0c0 25.706 20.839 46.545 46.545 46.545z" />
<glyph unicode="&#xe926;" glyph-name="message" horiz-adv-x="838" d="M418.909-50.886c-86.368 0-163.675 69.17-174.638 126.581-1.839 9.519 3.071 27.494 18.889 31.065s31.277-3.515 35.010-12.913c16.131-40.611 58.039-88.029 120.739-88.029 62.699 0 99.905 45.936 122.023 90.062 5.454 10.881 25.87 15.512 37.313 10.881s15.375-21.56 13.237-31.065c-13.237-58.848-86.205-126.581-172.574-126.581zM325.818 857.932v-22.608c-116.364-34.567-209.455-143.266-209.455-271.294v-203.471c0 0-5.446-67.823-46.545-67.823-27.555 0-69.818-26.384-69.818-67.823 0-41.44 45.638-67.823 69.818-67.823h698.183c24.18 0 69.818 18.832 69.818 67.823s-41.449 67.823-69.818 67.823c-41.216 0-46.545 67.823-46.545 67.823v203.471c0 128.028-69.818 236.726-209.455 271.294v22.608c0 49.737-41.891 90.432-93.091 90.432s-93.091-40.694-93.091-90.432zM456.918 848.395v-21.901c0-20.018 13.978-37.495 33.953-42.445 107.384-26.567 176.038-106.9 176.038-220.371v-197.112c0-1.117 0.049-2.234 0.135-3.329 4.566-58.171 25.53-110.745 81.961-110.745 3.765 0 27.659-1.051 27.659-21.901 0-20.062-27.434-17.333-27.659-17.333l-656.136-0.044c-5.862 0.81-25.963 1.67-25.963 17.935s20.214 21.081 24.949 21.344c56.87 0 75.44 67.325 78.919 110.658 0.091 1.138 0.135 2.278 0.135 3.417v197.112c0 98.578 77.059 191.505 176.146 220.919 18.961 5.628 31.902 22.646 31.902 41.897v21.901c0 24.158 15.085 43.802 39.952 43.802s38.009-19.647 38.009-43.803z" />
<glyph unicode="&#xe927;" d="M205.874 960h612.252c75.142 0 136.056-65.494 136.056-146.286v-804.571c0-56.943-11.903-73.143-68.028-73.143-37.417 0-162.135 88.922-374.154 266.767-215.647-177.844-340.365-266.767-374.154-266.767-50.683 0-68.028 12.22-68.028 73.143v804.571c0 80.791 60.914 146.286 136.056 146.286zM270.322 862.561c-69.082 0-107.413-33.598-107.413-117.833v-632.676c0-45.032 22.58-51.084 51.406-26.36 19.217 16.483 118.446 95.422 297.685 236.817 180.7-145.544 280.051-224.483 298.054-236.817 27.003-18.501 51.037-12.369 51.037 26.36v632.676c0 79.367-25.794 117.833-107.413 117.833h-483.357z" />
<glyph unicode="&#xe928;" d="M353.746 675.556h305.131c25.706 0 46.545-20.839 46.545-46.545v0c0-25.706-20.839-46.545-46.545-46.545h-305.131c-25.706 0-46.545 20.839-46.545 46.545v0c0 25.706 20.839 46.545 46.545 46.545z" />
<glyph unicode="&#xe929;" d="M353.746 504.889h305.131c25.706 0 46.545-20.839 46.545-46.545v0c0-25.706-20.839-46.545-46.545-46.545h-305.131c-25.706 0-46.545 20.839-46.545 46.545v0c0 25.706 20.839 46.545 46.545 46.545z" />
<glyph unicode="&#xe92a;" d="M512-64c-282.77 0-512 229.23-512 512s229.23 512 512 512c282.77 0 512-229.23 512-512s-229.23-512-512-512zM512 29.091c231.357 0 418.909 187.552 418.909 418.909s-187.552 418.909-418.909 418.909c-231.357 0-418.909-187.552-418.909-418.909s187.552-418.909 418.909-418.909z" />
<glyph unicode="&#xe92b;" d="M177.162 395.637h655.71c-30.997-152.703-166.004-267.638-327.855-267.638s-296.858 114.934-327.855 267.638z" />
<glyph unicode="&#xe92c;" d="M1007.958 648.828c14.815-26.442 13.005-58.468-4.863-83.199-209.849-294.356-331.011-463.326-363.484-506.912-24.675-33.12-78.266-58.269-127.612-57.832-48.062 0.425-95.313 25.574-123.266 57.832l-367.932 507.026c-17.755 24.732-19.565 56.758-4.75 83.086l114.786 203.668c14.815 26.214 43.653 42.625 75.091 42.625h612.039c31.439 0 60.276-16.412 75.091-42.625l114.899-203.668zM894.787 645.937l-71.012 122.034c-12.121 21.626-35.716 35.166-61.438 35.166h-500.759c-25.723 0-49.317-13.54-61.438-35.166l-70.919-122.034c-12.121-21.72-10.64-48.142 3.886-68.545l321.92-441.322c13.095-15.715 37.498-27.446 57.89-27.446 23.415 0 47.039 5.551 58.762 27.446l319.13 441.228c14.62 20.404 16.1 46.825 3.978 68.64z" />
<glyph unicode="&#xe92d;" d="M733.948 482.38l-155.877-220.081c-15.145-21.317-39.843-34.060-66.055-34.060-26.329 0-51.027 12.743-66.055 34.060l-155.994 220.081c-13.514 19.174-9.32 45.851 9.32 59.665 18.757 13.814 44.853 9.527 58.367-9.527l154.362-217.818 154.246 217.818c13.514 19.174 39.727 23.341 58.367 9.527 18.757-13.814 22.95-40.491 9.32-59.665z" />
<glyph unicode="&#xe92e;" d="M532.081 959.53c-285.24 0-508.233-220.863-508.233-491.069 0-82.408 26.922-181.997 53.845-235.843 3.423-6.845 26.922-53.845 26.922-53.845 0.212-93.646 0.371-163.881 0.477-210.704 0.024-10.533 1.244-17.774 8.699-20.894s16.009 0.314 28.328 5.824c32.447 14.514 81.116 36.286 146.010 65.314 79.084-26.945 154.259-45.406 243.952-40.923 264.911-4.483 487.903 216.379 487.903 491.069 0.001 270.207-222.993 491.070-487.903 491.070zM530.148 67.931c-72.923-3.645-151.865 14.463-216.163 36.371-51.214-18.615-89.624-32.576-115.231-41.883-5.383-1.957-9.131-2.985-12.509-1.414s-3.64 5.27-3.64 10.132c0 35.672 0 89.18 0 160.523 0 0-19.107 38.212-21.889 43.778-21.889 43.778-43.778 124.747-43.778 191.748 0 219.686 181.301 399.254 413.21 399.254 215.381 0 396.681-179.569 396.681-399.254 0-223.333-181.299-402.901-396.681-399.255z" />
<glyph unicode="&#xe92f;" d="M570.182 506.182h117.398c25.135 0 45.511-20.376 45.511-45.511v-2.069c0-25.135-20.376-45.511-45.511-45.511h-117.398v-117.398c0-25.135-20.376-45.511-45.511-45.511h-2.069c-25.135 0-45.511 20.376-45.511 45.511v117.398h-117.398c-25.135 0-45.511 20.376-45.511 45.511v2.069c0 25.135 20.376 45.511 45.511 45.511h117.398v117.398c0 25.135 20.376 45.511 45.511 45.511h2.069c25.135 0 45.511-20.376 45.511-45.511v-117.398z" />
<glyph unicode="&#xe930;" d="M512-64c-282.77 0-512 229.23-512 512s229.23 512 512 512c282.77 0 512-229.23 512-512s-229.23-512-512-512zM512 29.091c231.357 0 418.909 187.552 418.909 418.909s-187.552 418.909-418.909 418.909c-231.357 0-418.909-187.552-418.909-418.909s187.552-418.909 418.909-418.909z" />
<glyph unicode="&#xe931;" d="M511.921 694.924l246.845-246.845-246.845-246.845-246.845 246.845 246.845 246.845z" />
<glyph unicode="&#xe932;" d="M546.060 940.391l376.402-216.698c21.163-12.184 34.206-34.743 34.206-59.163v-433.060c0-24.419-13.043-46.979-34.206-59.163l-376.402-216.698c-21.085-12.139-47.036-12.139-68.121 0l-376.402 216.698c-21.163 12.184-34.206 34.743-34.206 59.163v433.060c0 24.419 13.043 46.979 34.206 59.163l376.402 216.698c21.085 12.139 47.036 12.139 68.121 0zM534.763 839.547c-14.056 8.092-31.358 8.092-45.414 0l-305.858-176.086c-14.109-8.122-22.804-23.162-22.804-39.442v-351.947c0-16.28 8.696-31.319 22.804-39.442l305.858-176.086c14.056-8.092 31.358-8.092 45.414 0l305.858 176.086c14.109 8.122 22.804 23.162 22.804 39.442v351.947c0 16.28-8.696 31.319-22.804 39.442l-305.858 176.086z" />
<glyph unicode="&#xe933;" d="M697.485 448.836c0-102.825-83.594-186.182-186.712-186.182s-186.712 83.356-186.712 186.182c0 102.825 83.594 186.182 186.712 186.182s186.712-83.356 186.712-186.182z" />
<glyph unicode="&#xe934;" d="M512-64c-282.77 0-512 229.23-512 512s229.23 512 512 512c282.77 0 512-229.23 512-512s-229.23-512-512-512zM512 29.091c231.357 0 418.909 187.552 418.909 418.909s-187.552 418.909-418.909 418.909c-231.357 0-418.909-187.552-418.909-418.909s187.552-418.909 418.909-418.909z" />
<glyph unicode="&#xe935;" d="M594.461 354.729c20.952-21.043 33.903-50.060 33.903-82.102 0-64.266-52.098-116.364-116.364-116.364s-116.364 52.098-116.364 116.364c0 22.76 6.534 43.994 17.829 61.928l-64.45 62.239c-10.561-5.004-22.371-7.803-34.834-7.803-44.986 0-81.455 36.468-81.455 81.455s36.468 81.455 81.455 81.455c44.986 0 81.455-36.468 81.455-81.455 0-15.554-4.36-30.090-11.924-42.453l61.905-59.781c18.827 13.1 41.708 20.779 66.382 20.779 15.424 0 30.147-3.001 43.617-8.451l100.794 174.58c-17.305 16.904-28.047 40.496-28.047 66.598 0 51.413 41.678 93.091 93.091 93.091s93.091-41.678 93.091-93.091c0-51.413-41.678-93.091-93.091-93.091-8.546 0-16.823 1.152-24.684 3.308l-102.31-177.206z" />
<glyph unicode="&#xe936;" d="M855.59 831.838h-696.719c-86.141 0-140.699-56.694-140.699-149.515v-479.48c0-92.817 54.554-138.679 140.699-138.679h708.466c86.107 0 138.489 45.862 138.489 138.679v479.48c-0.001 92.817-64.125 149.515-150.241 149.515zM921.654 231.969c0-61.535-30.305-79.518-76.39-79.518h-660.964c-46.085 0-81.955 9.446-81.955 70.985v421.943c0 57.774 31.769 98.165 81.955 98.165h645.825c52.867 0 91.527-33.763 91.527-89.512l0.003-422.062z" />
<glyph unicode="&#xe937;" d="M511.838 462.436c6.591-0.078 8.786 2.237 13.176 4.774 63.724 36.792 159.313 91.98 286.761 165.56 21.471 12.397 48.928 5.042 61.325-16.433s5.042-48.928-16.433-61.325l-321.541-185.641c-7.347-4.241-15.387-6.169-23.294-6.015-7.901-0.158-15.947 1.771-23.294 6.015l-321.541 185.641c-21.471 12.397-28.83 39.853-16.433 61.325s39.853 28.83 61.325 16.433c127.197-73.435 222.596-128.514 286.193-165.232 4.583-2.645 7.16-5.021 13.747-5.104z" />
<glyph unicode="&#xe938;" d="M512 773.818v0c25.706 0 46.545-20.839 46.545-46.545v-279.273c0-25.706-20.839-46.545-46.545-46.545v0c-25.706 0-46.545 20.839-46.545 46.545v279.273c0 25.706 20.839 46.545 46.545 46.545z" />
<glyph unicode="&#xe939;" glyph-name="community" horiz-adv-x="1126" d="M955.056 960h-794.594c-98.241 0-160.462-64.661-160.462-170.519v-470.038c0-105.858 62.218-158.161 160.462-158.161h85.938c0-92.93 0-148.524 0-166.783 0-27.387 33.213-29.186 52.162-12.666 12.633 11.014 77.378 70.83 194.238 179.448h475.656c98.207 0 157.944 52.303 157.944 158.161v470.038c-0.001 105.858-73.136 170.519-171.344 170.519zM1030.401 352.663c0-70.181-34.562-90.686-87.119-90.686h-476.538l-19.768-18.079c-55.139-49.451-85.138-76.356-89.998-80.715-7.29-6.538-14.58-8.582-14.58 1.93 0 7.008 0 39.296 0 96.864h-152.935c-52.561 0-93.467 10.775-93.467 80.955v404.419c0 65.89 36.23 111.956 93.467 111.956h736.55c60.293 0 104.386-38.508 104.386-102.087l0.002-404.556zM230.4 563.202c-0.002-22.865 12.196-43.994 31.999-55.427s44.2-11.432 64.002 0.002c19.801 11.433 31.999 32.56 31.999 55.424s-12.198 43.991-31.999 55.424c-19.802 11.433-44.199 11.433-64 0-19.802-11.431-32.001-32.559-32.001-55.424zM499.2 563.2c0-35.346 28.654-64 64.001-64s63.999 28.653 63.999 64-28.654 63.999-64 63.999c-35.346 0-64-28.653-64-63.999zM768 563.2c0-22.865 12.197-43.993 31.998-55.427 19.803-11.432 44.2-11.432 64.003 0s31.998 32.561 31.998 55.427c0 22.865-12.196 43.993-31.998 55.426s-44.198 11.432-64-0.001c-19.802-11.432-32-32.56-32.001-55.425z" />
<glyph unicode="&#xe93a;" d="M863.824 891.869h-713.417c-88.205 0-144.071-58.055-144.071-153.099v-422.018c0-95.043 55.862-142.003 144.071-142.003h77.158c0-83.436 0-133.35 0-149.743 0-24.589 29.82-26.205 46.833-11.372 11.342 9.889 69.472 63.593 174.394 161.116h427.063c88.174 0 141.808 46.959 141.808 142.003v422.018c-0.001 95.043-65.664 153.099-153.839 153.099zM931.472 346.579c0-63.011-31.031-81.422-78.219-81.422h-427.855l-17.747-16.232c-49.506-44.399-76.44-68.556-80.804-72.468-6.545-5.87-13.090-7.706-13.090 1.733 0 6.292 0 35.28 0 86.968h-137.311c-47.192 0-83.918 9.674-83.918 72.685v363.103c0 59.158 32.529 100.518 83.918 100.518h661.302c54.133 0 93.721-34.574 93.721-91.658l0.002-363.226z" />
<glyph unicode="&#xe93b;" d="M213.2 535.609c-0.002-20.529 10.952-39.499 28.73-49.764s39.685-10.264 57.463 0.002c17.778 10.265 28.73 29.232 28.73 49.761s-10.952 39.498-28.73 49.761c-17.778 10.265-39.683 10.265-57.462 0s-28.732-29.232-28.732-49.761zM454.539 535.607c0-31.735 25.726-57.461 57.462-57.461 31.734 0 57.461 25.726 57.461 57.461s-25.726 57.461-57.461 57.461c-31.735 0-57.461-25.726-57.461-57.461zM695.878 535.606c0-20.529 10.952-39.498 28.73-49.764 17.78-10.264 39.685-10.264 57.464 0s28.73 29.234 28.73 49.764c0 20.529-10.952 39.499-28.73 49.763s-39.683 10.264-57.461-0.001c-17.778-10.264-28.732-29.232-28.733-49.761z" />
<glyph unicode="&#xe93c;" glyph-name="find" d="M512-40.727c-269.917 0-488.727 218.811-488.727 488.727s218.811 488.727 488.727 488.727c269.917 0 488.727-218.811 488.727-488.727s-218.811-488.727-488.727-488.727zM512 52.364c218.504 0 395.636 177.132 395.636 395.636s-177.132 395.636-395.636 395.636c-218.504 0-395.636-177.132-395.636-395.636s177.132-395.636 395.636-395.636zM512 215.273c-128.532 0-232.727 104.196-232.727 232.727s104.196 232.727 232.727 232.727c128.532 0 232.727-104.196 232.727-232.727s-104.196-232.727-232.727-232.727zM512 308.364c77.119 0 139.636 62.517 139.636 139.636s-62.517 139.636-139.636 139.636c-77.119 0-139.636-62.517-139.636-139.636s62.517-139.636 139.636-139.636z" />
<glyph unicode="&#xe93d;" glyph-name="info-o" d="M182.857 960h658.286c80.791 0 146.285-65.494 146.285-146.285v-731.429c0-80.791-65.494-146.285-146.285-146.285h-658.286c-80.791 0-146.285 65.494-146.285 146.285v731.429c0 80.791 65.494 146.285 146.285 146.285zM231.618 862.476c-53.861 0-97.524-43.663-97.524-97.524v-633.905c0-53.861 43.663-97.524 97.524-97.524h560.762c53.861 0 97.524 43.663 97.524 97.524v633.905c0 53.861-43.663 97.524-97.524 97.524h-560.762zM207.237 213.943v273.067c0 32.317 19.157 58.515 42.789 58.515h199.68c23.631 0 42.789-26.198 42.789-58.515v-273.067c0-32.317-19.157-58.515-42.789-58.515h-199.68c-23.631 0-42.789 26.198-42.789 58.515zM304.761 277.333c0-16.158 2.71-24.381 14.954-24.381h61.209c12.908 0 14.045 8.223 14.045 24.381v146.285c0 16.158-1.158 24.381-14.045 24.381h-61.209c-13.403 0-14.954-8.223-14.954-24.381v-146.285zM778.666 746.423c21.039 0 38.096-21.831 38.096-48.761s-17.056-48.761-38.096-48.761h-533.334c-21.039 0-38.096 21.831-38.096 48.761s17.056 48.761 38.096 48.761h533.334zM778.727 496.761c21.006 0 38.034-21.831 38.034-48.761s-17.029-48.761-38.034-48.761h-177.493c-21.006 0-38.034 21.831-38.034 48.761s17.029 48.761 38.034 48.761h177.493zM778.727 301.715c21.006 0 38.034-21.831 38.034-48.761s-17.029-48.761-38.034-48.761h-177.493c-21.006 0-38.034 21.831-38.034 48.761s17.029 48.761 38.034 48.761h177.493z" />
<glyph unicode="&#xe93e;" glyph-name="study" d="M465.454 634.182v93.091c0 25.706 20.839 46.545 46.545 46.545s46.545-20.839 46.545-46.545v-93.091h93.091c25.706 0 46.545-20.839 46.545-46.545s-20.839-46.545-46.545-46.545h-93.091v-93.091c0-25.706-20.839-46.545-46.545-46.545s-46.545 20.839-46.545 46.545v93.091h-93.091c-25.706 0-46.545 20.839-46.545 46.545s20.839 46.545 46.545 46.545h93.091zM205.874 960h612.252c75.142 0 136.056-65.494 136.056-146.286v-804.571c0-56.943-11.903-73.143-68.028-73.143-37.417 0-162.135 88.922-374.154 266.767-215.647-177.844-340.365-266.767-374.154-266.767-50.683 0-68.028 12.22-68.028 73.143v804.571c0 80.791 60.914 146.286 136.056 146.286zM270.321 862.561c-69.082 0-107.413-33.598-107.413-117.833v-632.676c0-45.032 22.58-51.084 51.406-26.36 19.217 16.483 118.446 95.422 297.685 236.817 180.7-145.544 280.051-224.483 298.054-236.817 27.003-18.501 51.037-12.369 51.037 26.36v632.676c0 79.367-25.794 117.833-107.413 117.833h-483.357z" />
<glyph unicode="&#xe93f;" glyph-name="fresh" horiz-adv-x="945" d="M50.359 402.131c0 232.749 189.433 422.1 422.184 422.1v91.825l220.241-146.885-220.241-146.799v91.739c-171.987 0-312.063-139.99-312.063-312.063s140.076-311.982 312.063-311.982c171.987 0 312.063 140.074 312.063 312.063 0 30.381 24.593 55.060 54.976 55.060 30.467 0 55.060-24.679 55.060-55.060 0.086-232.834-189.349-422.184-422.1-422.184-232.749 0-422.182 189.349-422.182 422.184z" />
<glyph unicode="&#xe940;" glyph-name="avatar" d="M511.438 333.484c125.644 0 241.606 115.251 254.605 283.806 13.594 176.369-97.954 342.711-254.605 342.711-156.641 0-268.198-166.342-254.595-342.711 12.993-168.554 128.96-283.806 254.595-283.806v0zM509.16 292.533c-281.201 0-509.16-117.417-509.16-262.254 0-49.528 43.365-68.621 170.897-83.094 98.583-11.185 216.292-11.185 340.547-11.185 127.272 0 253.497 0 342.295 11.185 125.62 15.83 169.142 33.566 169.142 83.094 0 144.837-232.524 262.254-513.721 262.254v0z" />
<glyph unicode="&#xe941;" glyph-name="share_top" d="M767.362 682.667l48.959-28.267-212.696-368.4-48.959 28.267 212.696 368.4zM190.931 412.269l39.271 40.667 156.67-151.295-39.271-40.667-156.67 151.295zM143.36 365.724c-79.176 0-143.36 64.184-143.36 143.36s64.184 143.36 143.36 143.36c79.176 0 143.36-64.184 143.36-143.36s-64.184-143.36-143.36-143.36zM143.36 422.351c47.901 0 86.733 38.832 86.733 86.733s-38.832 86.733-86.733 86.733c-47.901 0-86.733-38.832-86.733-86.733s38.832-86.733 86.733-86.733zM860.16 610.987c-90.486 0-163.84 73.354-163.84 163.84s73.354 163.84 163.84 163.84c90.486 0 163.84-73.354 163.84-163.84s-73.354-163.84-163.84-163.84zM860.161 667.52c59.264 0 107.307 48.043 107.307 107.307s-48.043 107.307-107.307 107.307c-59.264 0-107.307-48.043-107.307-107.307s48.043-107.307 107.307-107.307zM491.52-43.378c-113.108 0-204.8 91.692-204.8 204.8s91.692 204.8 204.8 204.8c113.108 0 204.8-91.692 204.8-204.8s-91.692-204.8-204.8-204.8zM491.52 13.84c81.507 0 147.582 66.075 147.582 147.582s-66.075 147.582-147.582 147.582c-81.507 0-147.582-66.075-147.582-147.582s66.075-147.582 147.582-147.582z" />
<glyph unicode="&#xea15;" glyph-name="play" d="M512 960c-282.77 0-512-229.23-512-512s229.23-512 512-512 512 229.23 512 512-229.23 512-512 512zM512 32c-229.75 0-416 186.25-416 416s186.25 416 416 416 416-186.25 416-416-186.25-416-416-416zM384 672l384-224-384-224z" />
<glyph unicode="&#xea16;" glyph-name="pause" d="M512 960c-282.77 0-512-229.23-512-512s229.23-512 512-512 512 229.23 512 512-229.23 512-512 512zM512 32c-229.75 0-416 186.25-416 416s186.25 416 416 416 416-186.25 416-416-186.25-416-416-416zM320 640h128v-384h-128zM576 640h128v-384h-128z" />
<glyph unicode="&#x1f590;" glyph-name="logo" horiz-adv-x="2970" d="M2819.093-32.512h33.893v339.428h-33.893v-339.428zM2626.468 74.894c-28.040 0-47.628-0.512-58.849-1.621s-19.131-3.129-23.842-6.116c-8.937-5.746-13.42-16.441-13.42-32.057 0-15.417 5.311-25.856 15.904-31.374 8.68-4.494 37.691-6.684 87.203-6.684 36.206 0 60.163 2.532 71.756 7.708 11.707 5.177 17.532 15.616 17.532 31.403 0 15.161-6.539 25.515-19.531 30.777-13.021 5.319-38.633 7.964-76.753 7.964v0zM2539.294 132.38h-35.407c-0.286 4.352-0.457 7.737-0.457 10.268 0 24.775 8.452 41.586 25.384 50.546 16.961 9.017 48.741 13.511 95.341 13.511 36.635 0 62.933-1.906 78.98-5.547s28.582-10.61 37.72-20.85c7.51-8.306 12.478-18.062 14.705-29.44 2.256-11.292 3.398-30.948 3.398-59.193v-124.16h-33.893l0.685 27.563h-1.827c-8.452-12.971-18.617-21.276-30.553-25.031-11.821-3.698-34.208-5.575-67.187-5.575-37.663 0-63.846 0.996-78.523 2.987-14.648 2.020-25.813 6.087-33.294 12.43-7.624 5.945-12.878 13.084-15.819 21.305-2.97 8.306-4.397 19.826-4.397 34.759 0 18.233 2.227 32.256 6.653 41.984 4.483 9.756 11.993 17.067 22.586 21.817 11.45 5.49 38.348 8.22 80.55 8.22 44.144 0 73.041-1.451 86.661-4.324 13.62-2.901 24.071-9.842 31.523-20.964h2.941v25.372c0 20.85-3.426 35.868-10.251 45.028-6.025 8.22-15.219 13.71-27.554 16.612-12.307 2.958-32.437 4.409-60.477 4.409-36.777 0-60.563-2.389-71.328-7.111-10.822-4.836-16.247-15.275-16.247-31.289 0-0.853 0.086-1.963 0.086-3.328v0zM2410.087 108.971c-0.143 23.097-5.711 39.111-16.79 48.27-7.253 6.087-17.418 10.354-30.496 12.715-13.106 2.475-32.294 3.669-57.565 3.669-22.044 0-38.862-1.109-50.455-3.413-11.536-2.219-20.616-6.087-27.098-11.804-10.679-9.074-16.904-25.6-18.617-49.436h201.019zM2411.658 40.277h35.635c-0.6-28.132-9.68-47.844-27.183-59.022-17.589-11.207-48.113-16.782-91.629-16.782-36.006 0-63.332 1.536-81.978 4.58-18.703 3.072-32.78 8.22-42.317 15.502-21.729 16.896-32.666 50.318-32.666 100.181 0 34.93 4.654 61.127 13.849 78.677 8.766 16.725 21.387 28.103 37.948 33.963 16.561 5.831 44.23 8.789 82.977 8.789 36.977 0 63.789-2.105 80.208-6.428 16.476-4.324 29.639-12.658 39.49-24.86 8.109-10.268 13.763-22.215 16.79-35.783 3.027-13.653 4.654-34.332 4.968-62.18h-239.852c0.942-29.326 6.225-49.522 15.904-60.473 6.482-7.452 16.961-12.544 31.209-15.332 14.334-2.731 37.548-4.068 69.757-4.068 24.385 0 42.231 1.28 53.596 3.726 11.307 2.532 19.731 7.111 25.413 13.739 4.169 5.177 6.881 13.824 7.881 25.771v0zM1805.545 137.472h151.707c40.261 0 66.131 0.626 77.438 1.877 11.364 1.252 20.616 4.409 27.754 9.33 10.593 7.708 15.847 26.453 15.847 56.377 0 25.799-4.968 42.581-14.791 50.233-6.368 5.006-16.276 8.22-29.81 9.728-13.563 1.451-39.062 2.219-76.439 2.219h-151.707v-129.764zM1764.199-32.484v339.399h193.053c52.425-0.654 85.89-2.020 100.424-4.21 25.556-3.641 43.288-16.299 53.139-37.831 6.482-14.507 9.765-34.617 9.765-60.558 0-19.598-1.028-34.532-2.941-44.715-2.027-10.155-5.511-18.375-10.536-24.491-7.967-9.842-20.616-16.725-37.777-20.679 13.306-2.475 23.928-8.164 31.809-16.896 5.882-6.94 9.68-15.189 11.364-24.747 1.656-9.671 2.484-28.7 2.484-57.088v-48.185h-41.346v32.484c0 27.648-0.514 46.734-1.628 57.344-2.998 21.561-14.106 34.076-33.294 37.746-7.595 1.081-14.334 1.849-20.302 2.105-5.939 0.256-26.298 0.427-61.162 0.597h-151.707v-130.276h-41.346zM1695.67 6.201v-38.684h-342.361c-0.714 12.743-1.028 25.003-1.028 36.75 0 36.608 3.569 62.123 10.679 76.743 5.597 11.435 13.106 20.281 22.558 26.425 9.451 6.201 22.558 11.036 39.204 14.535 12.678 2.532 47.057 5.575 103.222 9.216 35.207 2.162 59.478 4.096 72.698 5.803 13.249 1.764 23.471 4.409 30.496 7.879 8.538 4.039 14.677 10.325 18.446 18.745 3.798 8.306 5.682 19.655 5.682 34.076 0 30.606-7.224 49.948-21.558 57.913-14.734 8.078-51.111 12.146-109.333 12.146-20.13 0-40.175-0.768-60.277-2.361-20.045-1.536-33.665-3.413-40.946-5.604-8.452-2.475-14.877-6.457-19.274-12.060-4.34-5.49-7.138-13.312-8.366-23.381-0.942-6.116-1.399-21.902-1.57-47.161h-39.262c0 29.525 0.971 50.29 2.97 62.236 1.913 12.060 5.968 22.556 11.993 31.488 6.482 9.33 14.248 16.441 23.243 21.504 8.994 5.006 20.445 8.676 34.379 10.78 20.73 3.157 47.085 4.75 79.151 4.75 21.815 0 46.143-0.768 73.155-2.361 27.040-1.536 45.401-3.328 55.223-5.348 11.993-2.105 22.472-6.855 31.523-14.251 9.137-7.367 15.705-16.356 19.759-26.965 4.854-12.658 7.281-31.289 7.281-55.979 0-20.708-1.713-36.892-5.14-48.412-3.398-11.634-9.366-21.532-18.046-29.867-8.281-7.822-18.132-13.653-29.496-17.636-11.307-3.982-27.098-6.94-47.371-8.988-32.066-3.3-75.611-6.457-130.634-9.415-21.187-1.365-36.492-4.153-45.857-8.505-9.394-4.21-15.819-11.605-19.302-22.016-2.684-7.964-4.083-25.287-4.255-51.996h302.414zM1023.17 306.916h33.922v-138.667h2.713c7.281 14.706 18.589 24.69 33.865 30.037 15.333 5.262 40.489 7.879 75.639 7.879 29.667 0 52.111-1.849 67.444-5.66 15.276-3.84 27.126-10.439 35.407-19.854 7.281-8.306 12.164-18.489 14.562-30.549 2.37-12.089 3.626-32.114 3.626-60.132v-122.453h-33.922v110.848c0 24.32-0.771 41.301-2.256 50.716-1.542 9.415-4.797 17.465-9.823 24.178-5.425 7.396-14.163 12.715-26.27 15.758-11.993 3.072-29.725 4.608-53.024 4.608-26.155 0-46.628-2.048-61.334-6.116-14.705-4.096-25.784-10.581-33.237-19.769-5.568-6.969-9.194-14.649-10.908-23.154-1.628-8.476-2.484-23.836-2.484-46.222v-110.848h-33.922v339.399zM933.425 52.508h34.693c-0.457-28.587-6.396-49.436-17.875-62.492-8.395-9.586-19.588-16.213-33.665-19.968-14.191-3.698-35.178-5.575-62.961-5.575-37.177 0-64.674 1.536-82.578 4.494-17.789 2.958-31.523 8.306-41.032 16.128-20.987 17.38-31.523 50.603-31.523 99.641 0 34.588 4.569 60.558 13.62 77.938 8.909 16.981 21.758 28.416 38.576 34.446 16.733 6.002 44.287 9.045 82.549 9.045 34.464 0 60.077-1.934 76.81-5.831 16.818-3.84 29.582-10.695 38.348-20.452 6.196-6.969 10.679-15.019 13.535-24.149 2.798-9.188 4.512-21.39 5.025-36.551h-35.521c-0.457 22.215-7.138 36.807-19.902 43.833s-38.862 10.61-78.352 10.61c-38.748 0-64.046-4.352-75.982-12.971-7.909-5.632-13.563-14.706-17.132-27.25-3.541-12.544-5.34-29.668-5.34-51.484 0-20.508 2.199-36.807 6.425-48.668 4.34-11.861 11.165-20.366 20.387-25.515 12.678-7.14 41.175-10.695 85.49-10.695 34.921 0 57.822 3.556 68.843 10.61 10.908 7.026 16.79 21.959 17.561 44.857v0zM611.224 108.971h-201.048c1.713 23.836 7.909 40.363 18.589 49.436 6.51 5.717 15.59 9.586 27.098 11.804 11.621 2.304 28.411 3.413 50.483 3.413 25.27 0 44.458-1.195 57.565-3.669 13.078-2.361 23.214-6.628 30.496-12.715 11.079-9.159 16.647-25.173 16.818-48.27v0zM612.737 40.277c-0.971-11.947-3.683-20.594-7.881-25.771-5.654-6.628-14.106-11.207-25.384-13.739-11.393-2.446-29.211-3.726-53.596-3.726-32.209 0-55.452 1.337-69.757 4.068-14.277 2.788-24.728 7.879-31.238 15.332-9.651 10.951-14.934 31.147-15.847 60.473h239.824c-0.314 27.847-1.942 48.526-4.968 62.18-3.027 13.568-8.68 25.515-16.818 35.783-9.823 12.203-22.986 20.537-39.461 24.86-16.447 4.324-43.231 6.428-80.236 6.428-38.719 0-66.388-2.958-82.949-8.789-16.561-5.86-29.182-17.237-37.948-33.963-9.194-17.55-13.849-43.748-13.849-78.677 0-49.863 10.908-83.285 32.666-100.181 9.537-7.282 23.614-12.43 42.288-15.502 18.674-3.044 46-4.58 82.007-4.58 43.516 0 74.040 5.575 91.601 16.782 17.532 11.179 26.584 30.891 27.183 59.022h-35.635zM51.168 306.916h351.726v-39.68h-154.705v-299.719h-41.346v299.719h-155.676v39.68zM2825.574-25.998h20.901v326.457h-20.901v-326.457zM2819.093 313.429h40.404v-352.398h-46.943v352.398h6.539zM2590.576 80.953v0c10.451 0.284 22.415 0.398 35.892 0.398 19.16 0 35.35-0.654 48.456-2.020 13.363-1.394 23.643-3.527 30.724-6.428v0.028c7.767-3.186 13.677-7.936 17.675-14.222 3.94-6.201 5.911-13.767 5.911-22.556 0-8.988-1.742-16.583-5.197-22.812-3.655-6.514-9.023-11.378-16.19-14.507-6.425-2.844-15.99-4.978-28.582-6.315-12.278-1.308-27.583-1.963-45.8-1.963-24.87 0-44.658 0.569-59.421 1.678-15.419 1.195-25.67 3.1-30.81 5.746v0.028c-6.51 3.385-11.422 8.334-14.677 14.763-3.141 6.172-4.683 13.625-4.683 22.329 0 8.619 1.285 16.043 3.826 22.215 2.77 6.542 6.967 11.662 12.535 15.275l0.086 0.057c2.912 1.82 6.71 3.356 11.307 4.523 4.312 1.109 9.423 1.963 15.362 2.532 5.739 0.569 13.592 0.996 23.585 1.252zM2626.468 68.409c-14.505 0-26.355-0.114-35.55-0.37h-0.029c-9.594-0.256-17.132-0.654-22.643-1.195-5.254-0.512-9.708-1.223-13.335-2.162-3.341-0.882-5.882-1.877-7.681-2.987-3.284-2.133-5.796-5.262-7.51-9.358-1.885-4.494-2.827-10.268-2.827-17.237 0-6.713 1.085-12.203 3.227-16.498 2.027-3.982 5.054-7.026 9.109-9.159l0.029 0.028c3.541-1.82 12.135-3.271 25.784-4.324 14.277-1.081 33.751-1.621 58.421-1.621 17.96 0 32.808 0.626 44.401 1.877 11.307 1.195 19.559 2.93 24.699 5.234l0.029 0.057c4.54 1.963 7.909 4.978 10.108 8.932 2.341 4.181 3.512 9.7 3.512 16.526 0 6.343-1.285 11.605-3.883 15.673-2.484 3.954-6.339 6.969-11.536 9.102l-0.057 0.028c-5.882 2.418-14.962 4.267-27.126 5.518-12.478 1.28-28.183 1.934-47.142 1.934v0zM2509.997 138.866h22.757c0.343 7.652 1.942 14.222 4.74 19.627 3.398 6.571 8.538 11.378 15.333 14.393v0.028c5.968 2.645 15.276 4.58 27.926 5.86 12.221 1.195 27.583 1.82 46.029 1.82 14.077 0 26.298-0.37 36.606-1.109 10.365-0.768 18.846-1.934 25.356-3.47 6.824-1.593 12.849-3.954 18.017-7.054 5.311-3.243 9.794-7.225 13.335-12.032h-0.029c3.912-5.319 6.853-12.174 8.737-20.565 1.856-8.021 2.741-17.465 2.741-28.302v-31.858h-12.906l-1.913 2.873c-3.284 4.864-7.138 8.818-11.679 11.804-4.512 3.015-9.765 5.148-15.79 6.428-13.135 2.788-41.574 4.153-85.319 4.153-20.987 0-38.062-0.654-51.14-1.991-12.649-1.28-21.558-3.129-26.555-5.547l-0.2-0.085c-4.569-2.048-8.48-4.636-11.679-7.737-3.198-3.044-5.768-6.684-7.652-10.78v-0.028c-1.97-4.409-3.512-9.813-4.512-16.185v-0.028c-1.028-6.514-1.57-14.279-1.57-23.125 0-7.31 0.371-13.682 1.028-19.058 0.685-5.291 1.685-9.813 3.027-13.568 1.256-3.527 2.998-6.827 5.225-9.813 2.256-3.044 5.111-5.888 8.452-8.505l0.171-0.171c3.169-2.702 7.224-4.949 12.050-6.713 5.083-1.906 11.107-3.356 17.96-4.295 7.167-0.939 17.247-1.65 30.239-2.162 12.564-0.484 28.383-0.711 47.399-0.711 16.333 0 29.982 0.455 40.975 1.365 10.708 0.91 18.788 2.219 24.271 3.925h0.029c5.14 1.621 9.965 4.238 14.363 7.851 4.569 3.726 8.766 8.562 12.649 14.507l1.885 2.958h12.021l-0.114-6.656-0.543-20.907h20.759v117.675c0 14.137-0.286 25.97-0.857 35.499-0.514 9.557-1.371 17.038-2.427 22.471-0.999 5.063-2.656 9.842-4.826 14.222-2.142 4.295-4.968 8.363-8.366 12.117l-0.029 0.057c-4.055 4.551-8.909 8.391-14.534 11.548-5.739 3.157-12.307 5.604-19.731 7.282h-0.029c-7.624 1.735-17.932 3.072-30.781 3.954-12.906 0.939-28.497 1.365-46.743 1.365-23.072 0-42.374-1.081-57.879-3.271-15.134-2.133-26.641-5.319-34.379-9.415-7.281-3.84-12.706-9.358-16.333-16.555-3.741-7.481-5.654-16.896-5.654-28.302l0.086-3.783zM2539.294 125.924h-41.517l-0.371 6.087-0.343 5.803v0.142c-0.086 2.076-0.143 3.726-0.143 4.693 0 13.34 2.341 24.718 7.053 34.076 4.826 9.643 12.135 17.067 21.787 22.158 9.166 4.864 22.101 8.476 38.719 10.837 16.219 2.276 36.121 3.442 59.678 3.442 18.36 0 34.293-0.455 47.656-1.422 13.477-0.939 24.414-2.389 32.78-4.267 8.623-1.963 16.333-4.864 23.129-8.619 6.91-3.812 12.906-8.562 17.96-14.222 4.112-4.551 7.567-9.557 10.308-14.99h0.029c2.684-5.404 4.711-11.264 5.939-17.493 1.171-5.916 2.056-13.995 2.627-24.263 0.6-10.126 0.914-22.215 0.914-36.21v-130.645h-47.114l0.2 6.628 0.257 10.809c-1.542-1.536-3.141-3.015-4.768-4.352-5.739-4.693-11.993-8.107-18.703-10.212-6.396-2.048-15.448-3.499-27.126-4.494-11.393-0.939-25.413-1.422-42.060-1.422-18.417 0-34.379 0.256-47.856 0.768-13.42 0.484-23.928 1.28-31.523 2.276h-0.057c-7.738 1.081-14.648 2.731-20.673 4.978-6.196 2.276-11.479 5.205-15.733 8.789-4.226 3.328-7.824 6.969-10.822 11.008v0.028c-3.055 4.096-5.425 8.533-7.11 13.198-1.599 4.523-2.827 9.984-3.598 16.242-0.771 6.201-1.199 13.084-1.199 20.679 0 9.33 0.628 17.749 1.799 25.173 1.199 7.623 3.027 14.137 5.454 19.484l0.029 0.028c2.598 5.604 6.082 10.553 10.422 14.763 4.283 4.096 9.366 7.481 15.248 10.155 6.425 3.072 16.733 5.376 30.924 6.798 13.763 1.394 31.266 2.105 52.453 2.105 44.544 0 73.869-1.508 88.003-4.494 7.624-1.593 14.391-4.409 20.33-8.363 2.227-1.451 4.312-3.072 6.282-4.864v11.321c0 10.012-0.771 18.489-2.37 25.458-1.513 6.628-3.712 11.861-6.539 15.73h-0.029c-2.513 3.413-5.711 6.286-9.566 8.59-4.026 2.446-8.795 4.267-14.248 5.575h-0.057c-5.768 1.394-13.563 2.446-23.3 3.157-9.823 0.711-21.729 1.081-35.664 1.081-18.303 0-33.237-0.597-44.772-1.735-11.165-1.109-19.131-2.759-23.928-4.864-4.026-1.764-7.024-4.608-9.052-8.476-2.227-4.267-3.312-9.899-3.312-16.868h-0.029l0.029-1.109v-0.028l0.029-2.048 0.143-6.599h-6.596zM2411.943 140.43v0c2.998-8.704 4.569-19.2 4.654-31.431l0.029-6.485h-214.525l0.514 6.94c0.885 12.487 2.998 23.211 6.31 32.057 3.484 9.244 8.309 16.555 14.477 21.788 3.741 3.3 8.224 6.030 13.335 8.249 4.968 2.19 10.565 3.812 16.79 5.006v0.028c6.053 1.166 13.449 2.048 22.129 2.645 8.652 0.54 18.56 0.853 29.582 0.853 12.649 0 23.9-0.313 33.751-0.91 9.823-0.626 18.189-1.593 25.013-2.873 7.053-1.28 13.306-3.072 18.731-5.319 5.654-2.361 10.565-5.319 14.705-8.789h0.029c6.425-5.319 11.25-12.572 14.477-21.76zM2403.434 115.484c-0.485 7.993-1.742 14.905-3.769 20.736-2.37 6.855-5.911 12.26-10.508 16.071l-0.029 0.028c-3.084 2.56-6.881 4.864-11.393 6.713h-0.029c-4.711 1.963-10.080 3.499-16.047 4.58h-0.057c-6.282 1.166-14.077 2.048-23.414 2.645-9.309 0.569-20.302 0.853-32.951 0.853-10.965 0-20.559-0.284-28.697-0.796-8.138-0.54-14.991-1.365-20.502-2.446h-0.029c-5.311-0.996-10.022-2.389-14.077-4.181-3.912-1.678-7.253-3.726-9.994-6.116l-0.057-0.057c-4.483-3.812-8.081-9.358-10.793-16.498-2.256-6.030-3.912-13.227-4.883-21.532h187.228zM2440.497 33.82h-23.014c-0.571-3.954-1.371-7.538-2.37-10.752-1.57-5.148-3.683-9.358-6.31-12.629l-0.114-0.114c-3.369-3.925-7.481-7.225-12.392-9.87-4.768-2.588-10.279-4.58-16.504-5.973l-0.057-0.028c-5.996-1.308-13.677-2.276-22.929-2.958h-0.057c-9.137-0.626-19.788-0.939-31.98-0.939-16.047 0-30.067 0.341-41.974 1.024-11.907 0.711-21.587 1.764-28.982 3.186h-0.057c-7.652 1.479-14.363 3.641-20.102 6.457h-0.029c-5.939 2.93-10.85 6.599-14.677 10.951-5.539 6.258-9.765 14.905-12.649 25.998-2.741 10.524-4.397 23.381-4.854 38.542l-0.228 6.713h239.938c-0.228 10.894-0.657 20.679-1.371 29.383-0.771 10.155-1.885 18.46-3.312 24.889-1.399 6.286-3.426 12.203-5.996 17.721-2.598 5.49-5.796 10.667-9.594 15.445v0.028c-4.454 5.518-9.708 10.155-15.648 13.909-5.968 3.783-12.792 6.684-20.387 8.676-7.824 2.048-18.246 3.612-31.238 4.636-13.163 1.052-28.954 1.593-47.314 1.593-19.217 0-35.578-0.768-49.027-2.19-13.335-1.394-23.957-3.527-31.809-6.258-7.424-2.645-14.020-6.514-19.674-11.577-5.739-5.12-10.622-11.577-14.677-19.228-4.255-8.164-7.51-18.517-9.708-31.033-2.256-12.686-3.369-27.591-3.369-44.686 0-24.263 2.627-44.43 7.852-60.444 5.025-15.417 12.449-26.994 22.301-34.617 4.197-3.214 9.537-6.030 15.99-8.391 6.682-2.446 14.448-4.409 23.357-5.86 9.052-1.479 20.359-2.617 33.808-3.356 13.335-0.74 29.068-1.109 47.142-1.109 21.472 0 39.604 1.337 54.367 4.068 14.42 2.645 25.698 6.542 33.779 11.662h-0.029c7.681 4.921 13.535 11.719 17.532 20.395 3.426 7.481 5.568 16.384 6.368 26.738v0zM2411.658 46.791h42.231l-0.114-6.628c-0.314-14.99-2.941-27.819-7.852-38.428-5.054-11.008-12.507-19.655-22.301-25.913h-0.029c-9.508-6.059-22.301-10.581-38.405-13.511-15.733-2.873-34.636-4.324-56.708-4.324-17.932 0-33.893 0.398-47.856 1.195-13.877 0.74-25.613 1.934-35.178 3.499-9.765 1.564-18.389 3.726-25.784 6.457-7.652 2.816-14.134 6.258-19.417 10.297h-0.029c-11.907 9.273-20.844 22.898-26.698 40.846-5.654 17.38-8.509 38.855-8.509 64.455 0 17.806 1.199 33.422 3.569 46.905 2.399 13.767 6.111 25.372 11.050 34.788 4.768 9.045 10.593 16.725 17.504 22.869 6.939 6.229 14.991 10.951 24.014 14.137 8.795 3.129 20.359 5.433 34.75 6.969 14.106 1.479 30.924 2.276 50.398 2.276 18.617 0 34.75-0.569 48.313-1.65 13.734-1.109 24.956-2.788 33.551-5.063 8.852-2.304 16.875-5.717 24.014-10.212 7.196-4.523 13.506-10.155 18.874-16.839l0.057-0.028c4.34-5.49 8.052-11.52 11.107-18.005 2.998-6.343 5.311-13.17 6.881-20.395 1.628-7.225 2.855-16.128 3.655-26.652 0.857-10.297 1.313-22.613 1.456-36.864l0.086-6.514h-239.595c0.657-11.292 2.056-20.992 4.169-29.042 2.37-9.074 5.654-15.986 9.794-20.679l0.057-0.028c2.656-3.1 6.225-5.717 10.651-7.879v-0.028c4.654-2.276 10.308-4.039 16.904-5.348 6.853-1.308 15.962-2.276 27.269-2.958h0.029c11.307-0.626 25.070-0.967 41.203-0.967 12.107 0 22.443 0.284 31.095 0.882 8.68 0.626 15.733 1.508 21.13 2.674 5.054 1.138 9.423 2.731 13.078 4.693 3.484 1.877 6.396 4.181 8.652 6.77h-0.029c1.599 1.991 2.941 4.75 3.998 8.249 1.199 3.812 2.027 8.505 2.484 14.052l0.514 5.945h5.968zM1957.252 131.015h-158.217v142.706h158.217c18.103 0 33.808-0.228 47.085-0.569 13.106-0.398 23.129-0.967 30.039-1.707h0.029c7.224-0.768 13.535-2.076 18.874-3.84 5.654-1.82 10.394-4.267 14.191-7.253 6.025-4.636 10.451-11.861 13.335-21.532 2.656-9.017 3.998-20.252 3.998-33.764 0-15.502-1.399-28.245-4.226-38.258-3.027-10.809-7.824-18.603-14.363-23.353l-0.114-0.085c-4.083-2.816-8.709-5.12-13.906-6.855h-0.029c-5.054-1.707-10.651-2.93-16.761-3.584-5.739-0.626-15.248-1.138-28.411-1.451-13.62-0.313-30.21-0.455-49.741-0.455zM1812.056 143.986h145.196c20.73 0 37.263 0.142 49.427 0.398 12.649 0.313 21.758 0.768 27.297 1.394 5.225 0.597 9.908 1.593 14.048 2.987 4.055 1.337 7.652 3.129 10.708 5.234v-0.028c3.969 2.987 7.138 8.42 9.337 16.299h0.029c2.456 8.789 3.683 20.395 3.683 34.788 0 12.316-1.142 22.357-3.426 30.094v0.028c-2.084 7.026-5.025 12.060-8.852 15.019l-0.029 0.028c-2.541 1.991-5.939 3.698-10.165 5.092-4.569 1.451-10.022 2.588-16.361 3.271-6.682 0.711-16.361 1.28-28.954 1.65-12.078 0.313-27.669 0.512-46.743 0.512h-145.196v-116.764zM2065.585 56.434v0zM1770.71 300.459v-326.457h28.325v130.247h158.245l41.432-0.284c10.365-0.085 17.047-0.199 19.959-0.313h0.029c3.169-0.114 6.453-0.398 9.937-0.768 3.569-0.37 7.253-0.853 11.022-1.422l0.257-0.028c11.079-2.133 19.902-6.855 26.384-14.222 6.425-7.253 10.451-16.924 12.135-28.985l0.029-0.228c0.571-5.404 0.971-13.028 1.256-22.756 0.286-10.155 0.428-21.902 0.428-35.243v-25.998h28.354v41.7c0 14.336-0.228 26.055-0.628 35.129-0.371 9.244-0.999 16.213-1.742 20.821h-0.029c-0.742 4.267-1.97 8.22-3.598 11.804-1.628 3.527-3.712 6.77-6.196 9.756l-0.029-0.028c-3.455 3.84-7.51 7.026-12.135 9.472-4.74 2.475-10.080 4.324-16.019 5.404l-30.581 5.632 30.296 7.026c7.995 1.849 14.905 4.352 20.702 7.509 5.539 3.044 10.051 6.684 13.477 10.951l0.057 0.028c2.113 2.56 3.94 5.604 5.454 9.102 1.542 3.641 2.798 7.851 3.712 12.544 0.942 4.836 1.628 10.894 2.113 18.119 0.457 7.168 0.714 15.616 0.714 25.344 0 12.715-0.8 23.922-2.341 33.536-1.542 9.472-3.826 17.607-6.824 24.348v-0.028c-4.454 9.756-10.651 17.436-18.531 23.040-7.995 5.717-17.903 9.415-29.61 11.065h-0.057c-7.11 1.052-18.903 1.934-35.293 2.645-16.761 0.683-38.148 1.223-64.16 1.564v-0.028h-186.542zM1757.689-32.484v345.913l199.648-0.028c26.384-0.37 47.942-0.882 64.589-1.564 17.047-0.711 29.325-1.621 36.72-2.759 13.792-1.963 25.556-6.4 35.264-13.312 9.823-6.997 17.446-16.441 22.843-28.217v-0.057c3.455-7.737 6.082-16.924 7.767-27.591 1.713-10.496 2.541-22.357 2.541-35.584 0-9.728-0.257-18.46-0.742-26.14-0.514-7.765-1.285-14.364-2.313-19.769v-0.057c-1.085-5.49-2.627-10.581-4.54-15.104-1.999-4.608-4.426-8.676-7.31-12.174-4.512-5.604-10.336-10.354-17.389-14.194-1.599-0.882-3.312-1.735-5.025-2.503l0.514-0.284v-0.028c5.996-3.186 11.279-7.282 15.705-12.203l0.143-0.171c3.312-3.897 6.053-8.22 8.195-12.857 2.142-4.665 3.683-9.671 4.626-14.933v-0.057c0.828-5.092 1.513-12.601 1.913-22.443 0.428-9.87 0.657-21.788 0.657-35.698v-54.67h-54.367v38.969c0 14.308-0.114 25.941-0.371 34.873-0.257 9.216-0.657 16.441-1.171 21.589-1.313 9.444-4.34 16.868-9.052 22.187-4.512 5.092-10.765 8.476-18.76 10.012-3.798 0.569-7.338 1.024-10.508 1.365-3.255 0.341-6.339 0.597-9.109 0.711-3.027 0.114-9.566 0.228-19.531 0.313-10.194 0.114-24.014 0.199-41.375 0.284v-0.028h-145.196v-130.276h-54.367v6.485zM1689.131-25.998v25.714h-302.414l0.057 6.514c0.086 13.682 0.485 24.889 1.171 33.508 0.742 9.159 1.913 16.014 3.426 20.508h0.029c1.999 6.030 4.911 11.264 8.68 15.531l-0.029 0.028c3.826 4.352 8.538 7.851 14.077 10.325 5.14 2.361 11.821 4.324 20.016 5.831 7.938 1.451 17.332 2.503 28.097 3.214h0.086c27.155 1.479 51.797 2.987 73.812 4.58 21.844 1.564 40.718 3.157 56.48 4.807h0.029c9.937 0.996 18.788 2.219 26.498 3.698 7.538 1.422 13.991 3.072 19.388 4.978h0.029c5.225 1.82 10.137 4.096 14.677 6.827 4.54 2.674 8.68 5.831 12.507 9.415 3.883 3.726 7.196 7.822 9.88 12.288 2.684 4.523 4.854 9.415 6.368 14.649v0.028c1.599 5.404 2.798 11.918 3.598 19.598 0.828 7.737 1.228 16.754 1.228 26.994 0 12.203-0.571 22.784-1.713 31.687-1.142 8.818-2.855 16.156-5.111 21.988v0.028c-1.827 4.75-4.226 9.159-7.138 13.141-2.941 4.039-6.51 7.765-10.622 11.093-4.083 3.3-8.509 6.059-13.249 8.192l-0.029 0.028c-4.683 2.133-9.794 3.698-15.276 4.665l-0.171 0.057c-4.683 0.939-11.507 1.877-20.473 2.759-8.994 0.853-20.302 1.678-33.808 2.446h-0.029c-13.649 0.796-26.441 1.422-38.348 1.764-11.621 0.398-23.157 0.597-34.436 0.597-16.019 0-30.438-0.427-43.259-1.166-12.992-0.796-24.642-1.991-34.921-3.499-6.596-1.024-12.621-2.389-17.96-4.068-5.368-1.65-10.137-3.698-14.191-5.945-4.026-2.276-7.824-5.063-11.336-8.306s-6.767-7.026-9.794-11.292c-2.713-4.068-4.997-8.448-6.796-13.17-1.827-4.864-3.227-10.098-4.112-15.616v-0.028c-0.971-5.717-1.685-13.682-2.17-23.78-0.371-8.533-0.6-18.859-0.657-30.976h26.327c0.086 9.842 0.228 18.005 0.4 24.491v0c0.257 8.164 0.628 13.852 1.114 17.067 0.685 5.461 1.799 10.354 3.341 14.706v0.028c1.599 4.523 3.769 8.476 6.368 11.804 2.684 3.413 5.968 6.286 9.794 8.676 3.712 2.304 7.967 4.181 12.706 5.547v0.028c3.883 1.166 9.451 2.276 16.704 3.243 7.053 0.967 15.619 1.82 25.641 2.617 9.851 0.768 19.988 1.394 30.353 1.764h0.029c10.451 0.427 20.616 0.626 30.381 0.626 29.211 0 53.11-1.024 71.642-3.1 19.074-2.105 32.694-5.404 40.803-9.842l0.029-0.028c8.566-4.75 14.991-12.743 19.103-23.893 3.855-10.354 5.796-23.609 5.796-39.68 0-7.452-0.514-14.279-1.485-20.366-1.056-6.229-2.627-11.719-4.74-16.356-2.227-4.892-5.14-9.216-8.766-12.885-3.569-3.641-7.824-6.656-12.735-9.017-3.883-1.963-8.623-3.612-14.163-5.035-5.311-1.365-11.45-2.56-18.36-3.47h-0.029c-7.081-0.882-16.733-1.82-28.868-2.816-11.764-0.91-26.527-1.934-44.287-2.987-28.383-1.849-50.997-3.527-67.73-5.035-16.904-1.508-28.468-2.844-34.579-4.068-8.024-1.707-15.162-3.698-21.358-5.973v-0.028c-6.111-2.276-11.336-4.807-15.59-7.595-4.14-2.731-7.967-6.087-11.307-10.041-3.398-3.982-6.396-8.59-8.937-13.824-3.255-6.684-5.739-16.071-7.395-28.188-1.742-12.43-2.598-27.676-2.598-45.739 0-6.485 0.057-12.629 0.228-18.233 0.114-3.897 0.228-7.879 0.428-12.032h329.654zM1702.18 6.201v-45.17h-355.010l-0.343 6.172c-0.343 6.087-0.6 12.288-0.742 18.46-0.2 6.884-0.286 13.084-0.286 18.603 0 18.517 0.914 34.389 2.741 47.502 1.856 13.483 4.768 24.149 8.595 32.028 3.027 6.201 6.624 11.748 10.708 16.583 4.14 4.836 8.88 9.045 14.106 12.487 5.197 3.385 11.279 6.372 18.16 8.932v-0.057c6.853 2.532 14.648 4.722 23.271 6.542h0.057c6.567 1.337 18.617 2.788 36.035 4.295 17.618 1.593 40.318 3.271 68.044 5.092h0.029c17.075 0.996 31.723 2.020 44.030 2.987 12.478 0.996 21.901 1.906 28.183 2.702v0.028c6.368 0.825 12.021 1.934 16.847 3.129 4.654 1.195 8.566 2.588 11.679 4.124l0.057 0.057c3.541 1.678 6.596 3.812 9.137 6.4l0.029 0.028c2.513 2.56 4.569 5.632 6.139 9.102l0.029 0.085c1.656 3.612 2.912 7.964 3.741 13.084 0.885 5.234 1.313 11.349 1.313 18.29 0 14.535-1.656 26.311-4.997 35.243-2.998 8.135-7.424 13.824-13.163 17.010-6.596 3.612-18.617 6.428-35.978 8.334-17.903 1.991-41.317 2.987-70.214 2.987-10.365 0-20.33-0.171-29.896-0.54-9.708-0.398-19.674-0.996-29.867-1.792-10.022-0.768-18.36-1.621-24.899-2.503-6.396-0.882-11.307-1.849-14.677-2.873h-0.086c-3.655-1.052-6.824-2.418-9.508-4.068v-0.028c-2.598-1.621-4.768-3.527-6.453-5.717-1.713-2.162-3.169-4.892-4.34-8.192-1.228-3.413-2.113-7.424-2.684-12.004l-0.029-0.171c-0.428-2.901-0.8-8.135-0.999-15.644-0.257-7.879-0.428-18.091-0.485-30.578l-0.057-6.485h-52.196v6.514c0 14.535 0.257 27.25 0.742 38.002 0.485 10.61 1.256 19.058 2.284 25.287 1.028 6.457 2.656 12.544 4.797 18.119 2.17 5.746 4.94 11.093 8.224 15.929l0.057 0.057c3.512 5.035 7.395 9.5 11.621 13.397 4.197 3.925 8.795 7.282 13.763 10.069l0.057 0.028c4.94 2.731 10.479 5.12 16.647 7.054 5.996 1.877 12.649 3.385 19.902 4.494 10.536 1.593 22.558 2.816 36.092 3.612 13.42 0.796 28.097 1.223 44.030 1.223 10.508 0 22.101-0.228 34.836-0.626 12.449-0.398 25.327-1.024 38.719-1.792 13.477-0.768 24.899-1.621 34.265-2.503 9.309-0.91 16.561-1.877 21.672-2.958v0.028c6.539-1.138 12.649-3.015 18.446-5.632 5.739-2.588 11.079-5.945 16.076-9.956 4.94-4.039 9.28-8.533 12.906-13.511s6.596-10.382 8.795-16.185v-0.028c2.627-6.798 4.569-15.132 5.825-24.917 1.285-9.728 1.885-20.878 1.885-33.337 0-10.439-0.428-19.911-1.342-28.302-0.885-8.505-2.227-15.844-4.026-21.959h-0.029c-1.856-6.315-4.397-12.203-7.71-17.636-3.284-5.461-7.31-10.496-12.050-15.047l-0.057-0.057c-4.454-4.21-9.394-7.908-14.677-11.065s-10.993-5.803-17.104-7.936c-5.939-2.105-13.049-3.954-21.301-5.49-8.024-1.508-17.247-2.816-27.612-3.84-16.247-1.707-35.235-3.3-56.879-4.864-21.472-1.564-46.143-3.1-74.012-4.58-10.336-0.683-19.245-1.678-26.555-3.044-7.053-1.28-12.764-2.901-16.961-4.864l-0.057-0.028c-3.769-1.707-6.996-4.068-9.594-7.054h-0.029c-2.656-3.015-4.711-6.741-6.168-11.093v-0.057c-1.171-3.47-2.113-9.273-2.741-17.436-0.6-7.14-0.971-15.844-1.142-26.027h302.385v-6.457zM1050.582 300.459h-20.873v-326.457h20.873v104.363c0 11.036 0.257 20.565 0.657 28.53 0.428 8.078 1.085 14.393 1.97 18.916v0.028c0.942 4.722 2.456 9.273 4.512 13.625 2.027 4.38 4.626 8.476 7.71 12.316v0.028c4.197 5.177 9.451 9.614 15.59 13.284 6.053 3.584 13.049 6.457 20.987 8.647 7.652 2.133 16.875 3.726 27.469 4.779 10.536 1.052 22.415 1.564 35.578 1.564 11.821 0 22.301-0.398 31.324-1.166 9.223-0.768 17.018-1.991 23.328-3.612 6.596-1.65 12.392-3.982 17.304-6.94 5.111-3.072 9.309-6.855 12.564-11.236 2.798-3.726 5.14-7.936 7.024-12.516 1.799-4.437 3.141-9.301 3.969-14.507v-0.028c0.8-4.978 1.399-11.918 1.77-20.594 0.4-8.818 0.6-19.228 0.6-31.118v-104.363h20.901v115.968c0 13.966-0.314 25.828-0.885 35.527-0.6 9.728-1.456 17.55-2.627 23.381-1.085 5.461-2.741 10.524-4.911 15.104-2.199 4.551-4.911 8.704-8.166 12.402l0.029 0.028c-3.683 4.153-8.138 7.708-13.363 10.61v-0.028c-5.368 3.044-11.65 5.461-18.731 7.196-7.31 1.849-16.418 3.214-27.297 4.124-11.022 0.91-23.9 1.394-38.576 1.394-17.446 0-32.352-0.654-44.601-1.934-12.050-1.252-21.701-3.129-28.954-5.604-6.767-2.361-12.678-5.803-17.703-10.24-4.997-4.466-9.166-9.984-12.421-16.526l-1.799-3.612h-13.249v138.667zM1023.17 313.429h40.432v-127.716c1.827 2.133 3.769 4.068 5.796 5.888 6.253 5.547 13.649 9.813 22.129 12.8l0.029 0.028c8.081 2.731 18.703 4.864 31.838 6.201 12.906 1.337 28.24 2.048 45.915 2.048 14.991 0 28.183-0.512 39.633-1.451 11.593-0.967 21.387-2.475 29.382-4.437 8.166-2.048 15.533-4.892 21.958-8.476v-0.028c6.539-3.669 12.164-8.135 16.761-13.397h0.029c4.026-4.608 7.395-9.756 10.080-15.36v-0.028c2.656-5.547 4.626-11.605 5.939-18.148 1.256-6.315 2.199-14.706 2.827-25.088 0.6-10.297 0.942-22.386 0.942-36.295v-128.939h-46.943v117.333c0 12.316-0.171 22.528-0.543 30.549-0.371 8.277-0.885 14.706-1.599 19.143-0.685 4.21-1.77 8.107-3.227 11.691v0.028c-1.399 3.442-3.198 6.684-5.425 9.614v0.057c-2.227 2.987-5.168 5.604-8.823 7.794-3.798 2.304-8.423 4.153-13.792 5.518-5.682 1.422-12.764 2.532-21.244 3.243-8.623 0.74-18.731 1.109-30.21 1.109-12.992 0-24.471-0.484-34.322-1.451-9.823-0.996-18.274-2.475-25.27-4.38-6.796-1.877-12.735-4.324-17.732-7.31-4.883-2.844-8.966-6.286-12.135-10.268-2.513-3.129-4.54-6.343-6.139-9.671-1.57-3.356-2.741-6.912-3.484-10.695h-0.029c-0.742-4.011-1.342-9.7-1.713-17.095-0.4-7.339-0.628-16.64-0.628-27.876v-117.333h-46.943v352.398h6.51zM961.437 45.995h-21.872c-0.742-9.444-2.456-17.493-5.054-24.178-3.455-8.818-8.48-15.332-15.162-19.627-6.225-3.982-15.59-6.969-27.983-8.875v-0.028c-11.793-1.82-26.612-2.731-44.344-2.731-22.415 0-40.889 0.91-55.366 2.731-15.105 1.877-26.212 4.807-33.294 8.789-5.368 3.015-10.051 6.969-13.963 11.89-3.798 4.779-6.939 10.468-9.337 17.067l-0.029 0.028c-2.284 6.343-3.969 13.824-5.14 22.5-1.142 8.505-1.685 17.977-1.685 28.359 0 11.008 0.485 20.964 1.399 29.867 0.914 8.96 2.341 16.782 4.197 23.381 1.97 6.855 4.512 12.828 7.681 17.892h0.029c3.312 5.262 7.31 9.557 11.907 12.828 6.796 4.892 16.99 8.533 30.61 10.866 13.049 2.219 29.439 3.328 49.141 3.328 19.902 0 36.577-0.91 50.026-2.731 13.82-1.877 24.328-4.779 31.438-8.676 7.681-4.21 13.477-10.638 17.418-19.257 2.97-6.599 4.854-14.535 5.539-23.78h22.558c-0.314 4.722-0.714 9.102-1.285 13.141-0.771 5.746-1.827 10.78-3.112 15.019l-0.029-0.028c-1.313 4.21-2.998 8.135-4.997 11.719s-4.397 6.997-7.196 10.126c-3.883 4.267-8.68 7.993-14.42 11.065-5.854 3.1-12.678 5.575-20.502 7.339h-0.057c-7.995 1.877-18.274 3.3-30.752 4.238-12.564 0.939-27.469 1.451-44.573 1.451-18.931 0-35.15-0.768-48.57-2.247-13.306-1.451-23.928-3.584-31.809-6.428-7.567-2.731-14.277-6.684-20.102-11.861-5.825-5.205-10.793-11.691-14.848-19.456v-0.028c-4.255-8.107-7.453-18.318-9.594-30.663-2.199-12.572-3.312-27.364-3.312-44.288 0-23.836 2.541-43.748 7.595-59.733v-0.028c4.854-15.388 12.050-27.022 21.53-34.901 4.226-3.47 9.451-6.4 15.676-8.846 6.396-2.503 13.849-4.466 22.301-5.888 8.766-1.451 19.902-2.56 33.437-3.271 13.42-0.74 29.439-1.109 48.085-1.109 13.906 0 25.927 0.455 36.006 1.337 10.051 0.91 18.503 2.247 25.27 4.039 6.453 1.707 12.25 4.068 17.332 7.083 5.054 2.987 9.451 6.599 13.106 10.809v0.028c5.083 5.774 9.023 13.426 11.736 22.955 2.37 8.277 3.798 17.892 4.369 28.786v0zM933.425 58.965h41.289l-0.086-6.571c-0.257-14.933-1.97-27.847-5.054-38.741-3.227-11.321-8.052-20.651-14.448-27.904-4.654-5.348-10.080-9.87-16.276-13.483-6.111-3.612-12.992-6.428-20.644-8.448-7.395-1.963-16.561-3.413-27.497-4.38-10.879-0.967-23.243-1.451-37.091-1.451-18.446 0-34.693 0.398-48.741 1.166-14.077 0.74-25.698 1.906-34.893 3.442-9.337 1.536-17.675 3.755-24.928 6.571-7.453 2.958-13.877 6.599-19.16 10.923l-0.029 0.028c-11.479 9.5-20.045 23.182-25.698 40.96-5.454 17.266-8.195 38.485-8.195 63.659 0 17.607 1.171 33.109 3.512 46.45 2.37 13.682 5.996 25.173 10.85 34.446l0.029 0.028c4.826 9.188 10.736 16.868 17.732 23.154 7.053 6.286 15.219 11.065 24.385 14.364 8.88 3.186 20.53 5.604 34.779 7.168 14.048 1.508 30.724 2.332 49.969 2.332 17.304 0 32.523-0.512 45.543-1.508 13.106-0.996 24.042-2.503 32.751-4.551 8.909-2.048 16.847-4.892 23.728-8.562 7.053-3.783 13.078-8.42 17.989-13.852v-0.028c3.398-3.84 6.339-7.964 8.823-12.43 2.484-4.437 4.54-9.159 6.053-14.108v-0.057c1.513-4.921 2.713-10.638 3.598-17.067 0.885-6.286 1.456-13.34 1.742-21.134l0.228-6.713h-48.627l-0.114 6.372c-0.2 10.155-1.799 18.517-4.768 25.060-2.741 6.002-6.682 10.439-11.793 13.227v0.028c-5.654 3.129-14.648 5.547-26.955 7.196-12.649 1.707-28.754 2.56-48.256 2.56-19.045 0-34.693-1.052-46.971-3.129-11.65-1.991-20.073-4.864-25.213-8.562l-0.057-0.057c-3.227-2.304-6.053-5.348-8.423-9.159v0c-2.484-4.011-4.597-8.875-6.168-14.535-1.713-5.945-2.998-13.028-3.826-21.191-0.828-8.22-1.285-17.749-1.285-28.558 0-10.069 0.543-18.972 1.542-26.681 0.999-7.623 2.541-14.222 4.512-19.826 1.885-5.205 4.34-9.7 7.281-13.369 2.855-3.612 6.282-6.514 10.137-8.676 5.597-3.157 15.134-5.547 28.497-7.225 13.991-1.764 31.895-2.617 53.824-2.617 17.104 0 31.238 0.853 42.345 2.56v-0.028c10.593 1.65 18.246 3.982 22.986 7.026 4.283 2.759 7.652 7.253 10.080 13.426 2.627 6.77 4.169 15.531 4.512 26.197l0.228 6.258h6.253zM613.023 140.43v0c3.027-8.704 4.597-19.2 4.654-31.431l0.057-6.485h-214.525l0.485 6.94c0.885 12.487 3.027 23.211 6.339 32.057 3.484 9.244 8.309 16.555 14.477 21.788 3.741 3.3 8.195 6.030 13.306 8.249 4.968 2.19 10.593 3.812 16.818 5.006v0.028c6.025 1.166 13.449 2.048 22.129 2.645 8.652 0.54 18.531 0.853 29.582 0.853 12.621 0 23.9-0.313 33.751-0.91 9.823-0.626 18.16-1.593 25.013-2.873 7.053-1.28 13.306-3.072 18.731-5.319 5.654-2.361 10.565-5.319 14.705-8.789v0c6.453-5.319 11.307-12.572 14.477-21.76zM604.542 115.484v0c-0.485 7.993-1.742 14.905-3.769 20.736-2.37 6.855-5.911 12.26-10.508 16.071l-0.029 0.028c-3.112 2.56-6.91 4.864-11.393 6.713h-0.029c-4.711 1.963-10.080 3.499-16.076 4.58h-0.029c-6.282 1.166-14.077 2.048-23.443 2.645-9.28 0.569-20.273 0.853-32.923 0.853-10.993 0-20.587-0.284-28.725-0.796-8.109-0.54-14.962-1.365-20.502-2.446h-0.029c-5.282-0.996-9.994-2.389-14.077-4.181-3.912-1.678-7.253-3.726-9.965-6.116l-0.057-0.057c-4.512-3.812-8.109-9.358-10.793-16.498-2.256-6.030-3.912-13.227-4.883-21.532h187.228zM641.576 33.82v0c-0.8-10.354-2.912-19.228-6.339-26.709-4.026-8.704-9.88-15.502-17.532-20.423v0c-8.052-5.12-19.331-9.017-33.751-11.662-14.762-2.731-32.923-4.068-54.367-4.068-18.046 0-33.808 0.37-47.142 1.109-13.449 0.74-24.728 1.877-33.836 3.356-8.88 1.451-16.675 3.413-23.357 5.86-6.425 2.361-11.764 5.177-15.962 8.391-9.823 7.623-17.275 19.2-22.329 34.617-5.197 16.014-7.824 36.181-7.824 60.444 0 17.095 1.142 32 3.369 44.686 2.199 12.516 5.454 22.869 9.708 31.033 4.026 7.652 8.937 14.108 14.677 19.228h0.029c5.654 5.063 12.221 8.932 19.674 11.577 7.824 2.731 18.417 4.864 31.78 6.258 13.449 1.422 29.81 2.19 48.998 2.19 18.389 0 34.15-0.54 47.314-1.593 13.021-1.024 23.443-2.588 31.266-4.636 7.595-1.991 14.391-4.892 20.416-8.676 5.939-3.755 11.193-8.42 15.648-13.966h0.029c3.741-4.722 6.91-9.899 9.508-15.388 2.598-5.518 4.626-11.463 6.025-17.749h-0.029c1.428-6.542 2.541-14.848 3.341-24.889 0.714-8.704 1.142-18.489 1.371-29.383h-239.938l0.228-6.713c0.457-15.161 2.084-28.018 4.854-38.542 2.884-11.122 7.11-19.769 12.592-25.998l0.029 0.028c3.826-4.38 8.766-8.050 14.705-10.98h0.029c5.739-2.816 12.449-4.978 20.102-6.457h0.057c7.424-1.422 17.075-2.475 28.982-3.186 11.907-0.683 25.898-1.024 41.974-1.024 12.192 0 22.843 0.313 31.98 0.939h0.029c9.28 0.683 16.961 1.65 22.957 2.958l0.057 0.028c6.225 1.394 11.707 3.385 16.476 5.973 4.911 2.645 9.052 5.945 12.421 9.87l0.114 0.114c2.627 3.271 4.74 7.481 6.339 12.629 0.971 3.214 1.77 6.798 2.313 10.752h23.014zM612.737 46.791h-5.968l-0.514-5.945c-0.457-5.547-1.285-10.24-2.427-14.052-1.085-3.499-2.427-6.258-4.026-8.249h0.029c-2.256-2.588-5.168-4.892-8.652-6.77-3.655-1.991-8.052-3.556-13.078-4.693-5.425-1.166-12.478-2.048-21.13-2.674-8.623-0.569-19.017-0.882-31.095-0.882-16.133 0-29.896 0.341-41.203 0.967h-0.029c-11.307 0.683-20.445 1.65-27.297 2.958-6.567 1.308-12.25 3.072-16.904 5.348l0.029 0.028c-4.426 2.162-8.024 4.807-10.679 7.879l-0.029 0.028c-4.169 4.722-7.424 11.634-9.794 20.679-2.142 8.050-3.512 17.749-4.169 29.042h239.595l-0.057 6.514c-0.171 14.251-0.657 26.567-1.485 36.864-0.828 10.638-2.027 19.541-3.626 26.652h-0.029c-1.599 7.225-3.912 14.080-6.91 20.395-2.998 6.457-6.739 12.459-11.136 18.005v0.028c-5.368 6.684-11.707 12.316-18.874 16.839-7.138 4.494-15.162 7.908-24.042 10.212-8.595 2.276-19.788 3.954-33.522 5.063-13.563 1.081-29.725 1.65-48.342 1.65-19.445 0-36.235-0.796-50.398-2.276-14.363-1.536-25.955-3.84-34.693-6.969-9.109-3.186-17.132-7.908-24.071-14.137h0.029c-6.939-6.172-12.764-13.824-17.504-22.869-4.911-9.415-8.623-21.020-11.050-34.788-2.37-13.483-3.569-29.099-3.569-46.905 0-25.6 2.827-47.076 8.509-64.455 5.854-17.948 14.762-31.573 26.698-40.846h0.029c5.282-4.039 11.764-7.481 19.417-10.297 7.395-2.731 15.99-4.892 25.756-6.457 9.594-1.564 21.33-2.759 35.207-3.499 13.963-0.796 29.924-1.195 47.856-1.195 22.072 0 40.975 1.451 56.708 4.324 16.104 2.93 28.868 7.452 38.376 13.511h0.029c9.823 6.258 17.247 14.905 22.329 25.913 4.883 10.61 7.51 23.438 7.824 38.428l0.143 6.628h-42.26zM396.413 300.459h-338.734v-26.738h155.676v-299.719h28.325v299.719h154.733v26.738zM51.168 313.429h358.237v-52.679h-154.705v-299.719h-54.367v299.719h-155.676v52.679h6.51zM6.636 571.253c357.58 235.662 881.714 384.427 1465.926 384.427 584.126 0 1108.26-148.764 1465.84-384.427 1.827-1.28 2.77-4.437 2.113-7.367-0.742-3.044-2.941-4.608-4.968-3.584-374.969 196.608-891.994 318.151-1462.985 318.151-571.048 0-1088.101-121.543-1463.071-318.151-2.027-1.024-4.197 0.54-4.94 3.584-0.685 2.93 0.228 6.087 2.084 7.367zM7.473 564.113v0zM670.036 851.487c-254.129-66.645-479.162-163.982-660.964-283.819-0.057-0.028-0.171-0.313-0.286-0.683-0.171-0.654-0.2-1.422-0.029-2.162v0-0.028c191.139 100.039 418.999 180.622 671.929 235.634 244.021 53.049 511.456 82.318 791.884 82.318 280.37 0 547.777-29.269 791.798-82.318 252.93-55.012 480.79-135.595 671.929-235.662v0.028c0.143 0.768 0.114 1.536-0.057 2.19v0.028c-0.114 0.37-0.2 0.626-0.257 0.654-181.831 119.836-406.835 217.173-660.936 283.819-244.649 64.142-516.368 99.868-802.477 99.868-286.167 0-557.914-35.726-802.534-99.868v0zM4.246 574.837c182.602 120.32 408.491 218.055 663.563 284.985 245.449 64.341 517.881 100.181 804.762 100.181 286.795 0 559.256-35.84 804.676-100.21 255.072-66.873 480.961-164.636 663.563-284.956l0.029-0.028c1.799-1.223 3.112-3.186 3.712-5.433 0.6-1.991 0.685-4.295 0.2-6.428l-0.029-0.085c-0.228-0.939-0.571-1.849-0.971-2.617-0.8-1.536-1.942-2.759-3.284-3.584-1.599-0.939-3.426-1.252-5.311-0.768-0.543 0.142-1.085 0.341-1.599 0.597h-0.029c-190.683 99.982-418.228 180.537-670.958 235.492-243.45 52.935-510.229 82.119-789.999 82.119-279.828 0-546.635-29.184-790.056-82.119-252.787-54.955-480.333-135.509-671.015-235.492l-0.029-0.028c-0.514-0.256-1.056-0.455-1.599-0.569v0c-1.885-0.484-3.683-0.171-5.311 0.796-1.285 0.796-2.427 2.020-3.255 3.556l0.029 0.028c-0.4 0.768-0.771 1.65-0.999 2.617v0.028c-0.514 2.162-0.428 4.437 0.143 6.428v0.057c0.628 2.219 1.942 4.181 3.712 5.404l0.057 0.028z" />
</font>
</defs>
</svg>
